<?xml version="1.0" encoding="UTF-8" standalone="no"?>
<!-- Created with Inkscape (http://www.inkscape.org/) -->

<svg
   width="1920"
   height="1080"
   id="svg2"
   version="1.1"
   sodipodi:docname="butterfly-1920x1080.svg"
   inkscape:export-filename="butterfly-1920x1080.png"
   inkscape:export-xdpi="96"
   inkscape:export-ydpi="96"
   inkscape:version="1.3 (0e150ed6c4, 2023-07-21)"
   xmlns:inkscape="http://www.inkscape.org/namespaces/inkscape"
   xmlns:sodipodi="http://sodipodi.sourceforge.net/DTD/sodipodi-0.dtd"
   xmlns="http://www.w3.org/2000/svg"
   xmlns:svg="http://www.w3.org/2000/svg"
   xmlns:rdf="http://www.w3.org/1999/02/22-rdf-syntax-ns#"
   xmlns:cc="http://creativecommons.org/ns#"
   xmlns:dc="http://purl.org/dc/elements/1.1/">
  <defs
     id="defs4">
    <inkscape:perspective
       id="perspective2970"
       inkscape:persp3d-origin="606.92361 : 696.74395 : 1"
       inkscape:vp_z="471.38026 : 1085.0867 : 1"
       inkscape:vp_y="-994.5219 : 104.52846 : 0"
       inkscape:vp_x="393.6012 : 345.06845 : 1"
       sodipodi:type="inkscape:persp3d" />
    <inkscape:perspective
       sodipodi:type="inkscape:persp3d"
       inkscape:vp_x="7222.7596 : -3769.5017 : 1"
       inkscape:vp_y="-8318.6975 : 874.33034 : 0"
       inkscape:vp_z="7873.344 : 2420.3952 : 1"
       inkscape:persp3d-origin="9007.0989 : -827.9053 : 1"
       id="perspective10" />
    <inkscape:perspective
       id="perspective2914"
       inkscape:persp3d-origin="0.5 : 360.33333 : 1"
       inkscape:vp_z="1 : 360.5 : 1"
       inkscape:vp_y="0 : 1000 : 0"
       inkscape:vp_x="0 : 360.5 : 1"
       sodipodi:type="inkscape:persp3d" />
  </defs>
  <sodipodi:namedview
     id="base"
     pagecolor="#ffffff"
     bordercolor="#666666"
     borderopacity="1.0"
     inkscape:pageopacity="0"
     inkscape:pageshadow="2"
     inkscape:zoom="0.68541667"
     inkscape:cx="960"
     inkscape:cy="539.81763"
     inkscape:document-units="px"
     inkscape:current-layer="svg2"
     showgrid="false"
     inkscape:showpageshadow="false"
     inkscape:window-width="1920"
     inkscape:window-height="1057"
     inkscape:window-x="-8"
     inkscape:window-y="-8"
     inkscape:window-maximized="1"
     inkscape:snap-grids="false"
     inkscape:snap-to-guides="false"
     inkscape:object-nodes="false"
     inkscape:snap-smooth-nodes="false"
     inkscape:snap-object-midpoints="false"
     inkscape:snap-global="true"
     inkscape:object-paths="true"
     inkscape:snap-intersection-paths="false"
     objecttolerance="30"
     showborder="true"
     borderlayer="true"
     inkscape:pagecheckerboard="0"
     inkscape:deskcolor="#d1d1d1" />
  <metadata
     id="metadata2902">
    <rdf:RDF>
      <cc:Work
         rdf:about="">
        <dc:format>image/svg+xml</dc:format>
        <dc:type
           rdf:resource="http://purl.org/dc/dcmitype/StillImage" />
      </cc:Work>
    </rdf:RDF>
  </metadata>
  <g
     id="g3248"
     transform="matrix(1.9509448,0,0,1.9509448,249.49312,-169.74761)">
    <g
       transform="matrix(-1,0,0,1,728.37211,0)"
       id="g3126">
      <g
         id="g3128"
         transform="matrix(0.92268172,0,0,0.92268172,32.020628,51.612954)"
         style="stroke:#000000;stroke-width:2.11531">
        <path
           sodipodi:nodetypes="ccscc"
           id="path3130"
           d="M 661.08159,68.607533 C 499.6818,105.52256 447.65987,230.98031 360.00001,363.25842 c 35.15263,28.94659 104.85398,8.91557 143.45286,-0.002 C 681.86106,322.04028 661.19211,321.36012 672.36401,225.45186 709.44946,162.89703 777.1923,28.789229 661.08159,68.607533 Z"
           style="fill:#ffffff;stroke:#000000;stroke-width:2.11531" />
        <g
           id="g3132"
           style="stroke:#000000;stroke-width:2.11531">
          <path
             style="fill:none;stroke:#000000;stroke-width:2.11531;stroke-linecap:butt;stroke-linejoin:miter;stroke-opacity:1"
             d="m 420.21512,306.82681 c 0,0 124.82121,-137.82531 302.71555,-192.46369 l -11.06,33.41226 c -120.46851,40.9135 -192.8643,88.6478 -286.74337,172.30889 z"
             id="path3134"
             sodipodi:nodetypes="ccccc" />
          <path
             sodipodi:nodetypes="ccccc"
             id="path3136"
             d="m 429.82306,339.78509 c 0,0 135.74742,-123.61089 269.20526,-163.4371 l -16.97109,32.28222 C 572.53684,258.69027 522.9818,293.79061 431.67877,359.35618 Z"
             style="fill:none;stroke:#000000;stroke-width:2.11531;stroke-linecap:butt;stroke-linejoin:miter;stroke-opacity:1" />
          <path
             style="fill:none;stroke:#000000;stroke-width:2.11531;stroke-linecap:butt;stroke-linejoin:miter;stroke-opacity:1"
             d="m 431.68737,366.78491 c 0,0 109.61684,-70.11113 239.33524,-128.89578 l -3.23939,33.51643 c -108.23238,53.2801 -132.97507,61.04511 -236.51424,103.42643 z"
             id="path3138"
             sodipodi:nodetypes="ccccc" />
          <path
             sodipodi:nodetypes="ccccc"
             id="path3140"
             d="m 412.22397,290.967 c 0,0 112.32317,-188.50569 307.6057,-220.603817 l 5.83072,15.447803 C 575.56755,134.45257 504.6032,203.70285 415.23218,296.38005 Z"
             style="fill:none;stroke:#000000;stroke-width:2.11531;stroke-linecap:butt;stroke-linejoin:miter;stroke-opacity:1" />
        </g>
      </g>
      <g
         transform="matrix(0.92268172,0,0,0.92268172,32.020628,51.612954)"
         id="g3142"
         style="stroke:#000000;stroke-width:2.11531">
        <path
           style="fill:#ffffff;stroke:#000000;stroke-width:2.11531"
           d="m 503.45287,363.25674 c 0,0 -143.45286,0.002 -143.45286,0.002 -49.78718,193.29403 249.49883,391.13562 286.91343,143.45888 0,-79.23108 -64.22949,-143.46056 -143.46057,-143.46056 z"
           id="path3144"
           sodipodi:nodetypes="cccc" />
        <g
           id="g3146"
           style="stroke:#000000;stroke-width:2.11531">
          <path
             sodipodi:nodetypes="cccsc"
             id="path3148"
             d="m 429.67128,387.60247 c 0,0 103.11253,-19.62222 198.33064,47.87245 l 9.54693,20.15106 C 613.8815,426.17527 463.66876,391.12253 426.37993,402.20054 c 0,0 3.17284,-13.86423 3.29135,-14.59807 z"
             style="fill:none;stroke:#000000;stroke-width:2.11531;stroke-linecap:butt;stroke-linejoin:miter;stroke-opacity:1" />
          <path
             style="fill:none;stroke:#000000;stroke-width:2.11531;stroke-linecap:butt;stroke-linejoin:miter;stroke-opacity:1"
             d="m 421.50951,416.53876 c 0,0 126.43119,-10.06388 221.6493,57.43079 l 3.11123,19.0717 c -23.66735,-29.45071 -193.06305,-75.31963 -230.35188,-64.24162 0,0 5.47284,-11.52702 5.59135,-12.26087 z"
             id="path3150"
             sodipodi:nodetypes="cccsc" />
          <path
             sodipodi:nodetypes="cccsc"
             id="path3152"
             d="m 408.92962,440.89764 c 0,0 133.95982,4.09008 237.79108,67.0767 l -3.08353,16.43956 c -24.71431,-28.05476 -202.42656,-79.40427 -240.41336,-75.306 0,0 5.5873,-7.47641 5.70581,-8.21026 z"
             style="fill:none;stroke:#000000;stroke-width:2.11531;stroke-linecap:butt;stroke-linejoin:miter;stroke-opacity:1" />
          <path
             style="fill:none;stroke:#000000;stroke-width:2.11531;stroke-linecap:butt;stroke-linejoin:miter;stroke-opacity:1"
             d="m 390.61551,463.79781 c 0,0 135.80831,49.78365 234.24646,110.83825 -6.76585,10.31085 -5.99274,9.89228 -15.49978,20.72066 C 591.27505,567.0609 421.0451,481.55336 382.2272,471.53744 c 0,0 8.2698,-7.00578 8.38831,-7.73963 z"
             id="path3154"
             sodipodi:nodetypes="cccsc" />
          <path
             sodipodi:nodetypes="cccsc"
             id="path3156"
             d="m 376.89403,476.08869 c 0,0 124.22843,73.80274 216.87051,132.28131 -12.04374,6.57068 -27.01593,11.62444 -45.31364,14.10745 -64.11621,-40.33456 -158.34372,-121.56399 -178.13642,-141.50984 0,0 6.46105,-4.14507 6.57955,-4.87892 z"
             style="fill:none;stroke:#000000;stroke-width:2.11531;stroke-linecap:butt;stroke-linejoin:miter;stroke-opacity:1" />
          <path
             sodipodi:nodetypes="cccsc"
             id="path3158"
             d="m 399.3475,454.06221 c 0,0 206.81524,44.72861 241.71725,80.78694 0,0 -5.70466,17.63389 -5.70466,17.63389 -14.81216,-19.62728 -230.28917,-92.88625 -240.56241,-93.12702 0,0 4.43131,-4.55996 4.54982,-5.29381 z"
             style="fill:none;stroke:#000000;stroke-width:2.11531;stroke-linecap:butt;stroke-linejoin:miter;stroke-opacity:1" />
        </g>
      </g>
      <g
         id="g3160">
        <path
           style="fill:#ff0000;fill-opacity:1;stroke:none"
           d="m 411.32859,316.72771 c -0.65564,-1.26786 -0.56998,-1.43728 6.04419,-11.95378 31.93668,-50.77914 55.32495,-82.11643 80.60344,-107.99829 39.35479,-40.29413 83.63666,-65.83319 137.58652,-79.35145 3.63167,-0.90999 8.85718,-2.34835 11.61224,-3.19635 11.56243,-3.5589 18.9345,-4.87434 27.32291,-4.87539 8.56951,-0.001 13.5614,1.38827 18.15578,5.05313 1.17755,0.93932 1.55519,1.47793 1.13845,1.62373 -0.34297,0.12 -3.49248,0.75493 -6.99892,1.41096 -85.00567,15.90395 -170.46929,70.51941 -238.68385,152.53074 -12.25647,14.73542 -22.70648,28.63198 -30.97551,41.19165 -2.46428,3.74294 -4.62893,6.81565 -4.81035,6.82824 -0.18141,0.0126 -0.62912,-0.55584 -0.9949,-1.26319 z"
           id="path3162" />
        <path
           style="fill:#ff8000;fill-opacity:1;stroke:none"
           d="m 414.38615,321.70121 c -0.87377,-1.52315 -0.88907,-1.71815 -0.21778,-2.77665 16.32432,-25.74082 40.30684,-55.4764 64.95796,-80.5404 63.42973,-64.49213 134.48085,-105.1143 208.78326,-119.36799 4.08898,-0.7844 7.57795,-1.25994 7.75326,-1.05675 0.49378,0.57232 4.67692,12.02067 4.46844,12.22915 -0.10159,0.10159 -4.47621,1.64199 -9.72138,3.42311 -69.77806,23.69483 -126.18223,54.66695 -179.16641,98.38214 -21.73229,17.93047 -35.07394,30.36074 -67.88175,63.24468 l -28.03584,28.10091 z"
           id="path3164" />
        <path
           style="fill:#ffff00;fill-opacity:1;stroke:none"
           d="m 418.13871,329.18777 -1.73067,-3.88405 4.78582,-5.12495 c 9.41947,-10.08697 46.29623,-46.81714 56.35139,-56.12738 25.26643,-23.39463 45.84844,-40.34993 68.16427,-56.15319 42.61432,-30.17792 89.17079,-53.40831 146.21754,-72.95851 4.57685,-1.5685 8.47037,-2.70185 8.65226,-2.51854 0.99877,1.00655 -0.71939,19.42342 -2.16737,23.23188 -0.29053,0.76416 -1.34321,1.27752 -4.63123,2.25852 -5.64261,1.6835 -24.01944,8.18644 -32.15939,11.38011 -74.02538,29.04358 -147.7642,76.16696 -214.13128,136.84228 -2.88029,2.63327 -10.27324,9.77154 -16.42878,15.86282 l -11.19189,11.07506 z"
           id="path3166" />
        <path
           style="fill:#80ff00;fill-opacity:1;stroke:none"
           d="m 422.96098,340.38206 c -1.0357,-2.7021 -1.88308,-5.07375 -1.88308,-5.27035 0,-1.32056 22.28541,-23.07769 36.79024,-35.91812 72.73252,-64.38662 154.53309,-113.03583 232.55438,-138.30697 3.74934,-1.21442 6.87213,-2.15289 6.93952,-2.0855 0.27367,0.27366 -9.01878,27.84216 -9.54487,28.31737 -0.31272,0.28248 -3.13011,1.39153 -6.26086,2.46455 -3.13075,1.07302 -11.63501,4.16171 -18.89835,6.86376 -86.45586,32.16262 -150.61266,71.79193 -230.4755,142.3635 l -7.33841,6.48466 z"
           id="path3168" />
        <path
           style="fill:#00ff00;fill-opacity:1;stroke:none"
           d="m 428.80315,361.8443 c -0.009,-0.68877 -0.79264,-4.27065 -1.74156,-7.95974 l -1.7253,-6.70744 9.82458,-8.56553 c 34.84367,-30.37834 60.26449,-50.33956 88.60563,-69.57591 40.17875,-27.27103 84.05659,-49.86681 133.19919,-68.59358 11.20532,-4.27001 29.73527,-10.86231 29.94442,-10.65317 0.17416,0.17416 -6.62803,15.61635 -9.14233,20.75475 l -1.44837,2.95999 -10.92916,3.6866 c -21.89202,7.38459 -37.99053,14.22476 -62.32283,26.48065 -54.07619,27.23754 -120.06592,72.47338 -171.03741,117.24583 -1.36491,1.19892 -2.64568,2.17985 -2.84614,2.17985 -0.20046,0 -0.37179,-0.56354 -0.38072,-1.2523 z"
           id="path3170" />
        <path
           style="fill:#00ff80;fill-opacity:1;stroke:none"
           d="m 430.49468,373.32225 -0.79408,-7.92442 1.7837,-1.61146 c 4.66092,-4.21086 21.52245,-18.28146 30.43684,-25.39891 61.59318,-49.17741 125.35,-88.38505 179.56156,-110.42246 13.0057,-5.28692 32.65211,-12.24391 33.15536,-11.74066 0.18961,0.1896 -10.58621,20.9782 -13.03103,25.13936 l -1.27727,2.17394 -13.40812,6.27772 c -36.36766,17.02746 -70.439,35.04333 -99.39902,52.55913 -26.57382,16.07257 -59.46392,38.2897 -104.81408,70.8015 -5.76058,4.12979 -10.68663,7.63516 -10.94678,7.7897 -0.30848,0.18325 -0.7492,-2.47534 -1.26708,-7.64344 z"
           id="path3172" />
        <path
           style="fill:#00ffff;fill-opacity:1;stroke:none"
           d="m 431.0963,384.807 c 0,-0.87316 3.13233,-3.29618 17.87374,-13.82629 65.21182,-46.58224 96.63686,-66.81131 140.65597,-90.54374 18.32606,-9.8803 68.37186,-34.40387 68.97596,-33.79978 0.0909,0.0909 -1.45436,2.96493 -3.43385,6.3868 l -3.59908,6.22158 -0.55035,5.36272 c -0.30269,2.9495 -0.77905,5.58673 -1.05858,5.86052 -0.27952,0.27379 -5.22143,2.66858 -10.98201,5.32177 -61.4499,28.30235 -137.82869,69.4273 -198.37064,106.80952 -4.56779,2.82043 -5.57653,3.26559 -7.39995,3.26559 -1.90595,0 -2.11121,-0.10293 -2.11121,-1.05869 z"
           id="path3174" />
        <path
           style="fill:#0080ff;fill-opacity:1;stroke:none"
           d="m 439.54363,385.48601 c 1.29707,-1.13837 24.97748,-15.34417 43.01082,-25.80205 35.61804,-20.65558 67.24581,-37.8402 103.14398,-56.0422 24.62538,-12.48618 63.72125,-31.17842 64.14389,-30.66802 0.0842,0.10172 -0.42167,6.02522 -1.12421,13.16333 -0.70253,7.13811 -1.28591,13.50062 -1.29639,14.13891 -0.0176,1.07045 -1.28269,1.7746 -16.29895,9.07196 -32.64625,15.86487 -58.667,27.95692 -82.08258,38.14441 -19.27874,8.38767 -29.1505,12.47451 -84.33159,34.91272 l -8.51051,3.46062 h -8.54354 c -4.69894,0 -8.34885,-0.17086 -8.11092,-0.37968 z"
           id="path3176" />
        <path
           style="fill:#0000ff;fill-opacity:1;stroke:none"
           d="m 461.64483,385.67966 c 0.10436,-0.10232 10.12845,-4.22206 22.27576,-9.15499 64.36608,-26.13855 92.90812,-38.77602 147.01472,-65.09323 8.60039,-4.18319 15.72906,-7.51381 15.8415,-7.40137 0.38794,0.38795 -1.26601,10.09656 -2.60425,15.28678 -3.74062,14.50754 -11.32997,23.60973 -26.36971,31.62616 -15.71721,8.37754 -47.63784,17.81611 -106.51342,31.49484 l -14.75398,3.42784 h -17.54018 c -9.6471,0 -17.4548,-0.0837 -17.35044,-0.18603 z"
           id="path3178" />
        <path
           style="fill:#8000ff;fill-opacity:1;stroke:none"
           d="m 601.60734,445.7727 c -36.94516,-23.4449 -79.48772,-36.79406 -125.5926,-39.40892 -14.33705,-0.81313 -29.37708,-0.40419 -41.27539,1.12228 -2.62983,0.33739 -4.84341,0.55243 -4.91907,0.47787 -0.0757,-0.0746 0.18048,-3.0191 0.56922,-6.54342 0.38874,-3.52431 0.7068,-8.06847 0.7068,-10.09813 v -3.69029 l 39.04899,0.1841 c 41.73448,0.19675 40.93502,0.15724 53.02464,2.62094 30.42646,6.20052 58.07514,23.4865 77.35575,48.3629 3.4675,4.47386 7.44771,10.32658 7.19475,10.57955 -0.0917,0.0917 -2.84255,-1.53144 -6.11309,-3.60688 z"
           id="path3180" />
        <path
           style="fill:#ff00ff;fill-opacity:1;stroke:none"
           d="m 616.02388,466.74724 c -0.29843,-0.35959 -2.22316,-1.76981 -4.27717,-3.13383 -27.59939,-18.32804 -102.09433,-39.03968 -155.25394,-43.16486 -7.77487,-0.60333 -23.15477,-0.33832 -26.952,0.4644 -1.23123,0.26028 -2.3253,0.38653 -2.43127,0.28057 -0.1806,-0.1806 2.06925,-10.79298 2.34702,-11.07075 0.34623,-0.34623 10.89051,-1.52214 17.34268,-1.93408 25.27681,-1.61377 54.42448,1.13116 79.91293,7.52567 28.97548,7.26933 54.29689,18.44551 78.75904,34.76209 l 5.20052,3.46882 3.12486,6.55043 c 2.92403,6.12943 3.52434,7.81434 2.22733,6.25154 z"
           id="path3182" />
        <path
           style="fill:#ff0080;fill-opacity:1;stroke:none"
           d="m 617.99196,482.8888 c -18.61808,-12.16949 -40.44344,-22.44893 -64.17026,-30.22331 -36.53568,-11.97135 -80.42059,-18.5637 -119.87938,-18.00815 -6.32418,0.089 -11.49845,0.12989 -11.49839,0.0908 8.3e-4,-0.5132 3.67948,-10.84195 3.95193,-11.09605 1.59556,-1.48809 19.83108,-2.30863 30.83504,-1.38747 36.9123,3.08997 85.13083,14.00091 120.95373,27.36955 18.55218,6.92343 32.21293,14.09184 38.76565,20.34207 2.59347,2.47376 2.7522,2.76182 4.44519,8.06712 1.73305,5.43084 2.5422,8.47086 2.24968,8.45214 -0.0825,-0.005 -2.62645,-1.62828 -5.65319,-3.60667 z"
           id="path3184" />
        <path
           style="fill:#ff0000;fill-opacity:1;stroke:none"
           d="m 623.81648,501.11677 c -27.08944,-21.74071 -133.00847,-53.42104 -187.17661,-55.98443 -6.96803,-0.32974 -16.57146,-0.0136 -18.18042,0.5986 -0.85755,0.32626 -0.74265,-0.0828 1.29659,-4.61614 l 1.8795,-4.17822 3.47808,-0.32713 c 5.13476,-0.48294 32.24774,0.11328 41.95784,0.92266 59.61417,4.96909 111.09958,21.18703 150.95908,47.55221 3.25598,2.15368 6.06158,4.02502 6.23466,4.15854 0.32942,0.25413 2.72083,13.73221 2.47934,13.97369 -0.0763,0.0763 -1.39395,-0.86857 -2.92806,-2.09978 z"
           id="path3186" />
        <path
           style="fill:#ff8000;fill-opacity:1;stroke:none"
           d="m 621.21821,514.91112 c -7.8553,-4.55621 -26.68712,-13.83046 -36.88592,-18.1655 -41.05194,-17.44924 -92.00713,-30.46645 -142.53452,-36.41239 -10.36715,-1.21999 -25.08925,-2.51721 -28.56757,-2.51721 -1.19389,0 -2.1707,-0.12281 -2.1707,-0.2729 0,-0.1501 0.69091,-1.43086 1.53535,-2.84614 0.84444,-1.41528 2.07152,-3.52769 2.72684,-4.69424 1.17202,-2.08636 1.24177,-2.12878 4.27076,-2.59759 13.35876,-2.06761 36.78972,0.33145 68.5575,7.0195 59.26185,12.47636 120.54003,34.88202 136.80457,50.02101 l 2.59307,2.41362 0.19181,5.76126 c 0.10549,3.16869 0.0134,5.75293 -0.20471,5.74276 -0.21808,-0.0102 -3.0605,-1.56366 -6.31648,-3.45218 z"
           id="path3188" />
        <path
           style="fill:#ffff00;fill-opacity:1;stroke:none"
           d="m 623.73384,532.28269 c -2.95365,-3.14402 -14.62164,-9.90358 -26.33255,-15.25511 -50.25263,-22.96394 -147.46164,-50.26202 -184.39137,-51.78051 l -6.92953,-0.28493 1.94366,-2.77614 1.94365,-2.77615 2.25358,0.10202 c 15.78522,0.71454 41.0604,3.70591 60.99784,7.21921 51.20684,9.02346 95.94367,23.2929 133.90216,42.70994 14.06379,7.1941 20.2161,10.81223 20.23616,11.90076 0.0253,1.37055 -1.87506,11.33284 -2.23791,11.73211 -0.17372,0.19117 -0.79728,-0.16488 -1.38569,-0.7912 z"
           id="path3190" />
        <path
           style="fill:#80ff00;fill-opacity:1;stroke:none"
           d="m 618.96042,540.16532 c -24.10007,-18.21627 -98.45682,-42.77619 -202.40275,-66.85334 -7.62056,-1.76516 -13.94527,-3.29908 -14.05491,-3.40873 -0.10964,-0.10964 0.25041,-0.77367 0.8001,-1.47562 1.30176,-1.66233 3.00223,-1.89021 10.60443,-1.42114 41.86813,2.58338 145.01597,32.57831 190.58455,55.42114 10.68275,5.3551 20.14174,11.81425 20.14174,13.75395 0,1.32839 -1.42684,6.79677 -1.76305,6.75688 -0.15739,-0.0187 -1.91694,-1.26659 -3.91011,-2.77314 z"
           id="path3192" />
        <path
           style="fill:#00ff00;fill-opacity:1;stroke:none"
           d="m 614.15979,556.85548 c -10.76944,-7.60986 -40.8356,-20.70968 -89.02714,-38.78914 -42.50604,-15.94649 -96.73587,-34.60216 -120.1657,-41.33835 l -6.77563,-1.94802 1.53874,-1.61586 1.53873,-1.61585 16.16606,3.78211 c 71.21772,16.66167 127.4341,32.99436 164.16514,47.69535 17.26535,6.91017 34.68647,16.21066 39.28844,20.97465 l 1.49175,1.54426 -2.10408,6.56923 c -1.15724,3.61308 -2.23837,6.70102 -2.40251,6.8621 -0.16414,0.16108 -1.83535,-0.79313 -3.7138,-2.12048 z"
           id="path3194" />
        <path
           style="fill:#00ff80;fill-opacity:1;stroke:none"
           d="M 601.63679,576.61429 C 574.98514,560.29904 530.91451,537.56101 490.52363,519.28598 463.92096,507.24949 428.58224,492.43712 404.68415,483.306 c -5.38489,-2.05748 -9.94575,-3.8816 -10.13524,-4.05358 -0.1895,-0.17198 0.2546,-0.88671 0.98689,-1.58829 l 1.33144,-1.2756 4.47768,1.15404 c 6.08881,1.56926 32.56526,10.05938 51.17147,16.40899 43.07891,14.70124 89.48792,31.92646 118.60982,44.02336 26.7723,11.1209 45.76588,21.04089 45.76588,23.90266 0,1.68326 -8.09472,18.46255 -8.87583,18.39843 -0.25273,-0.0208 -3.12349,-1.66852 -6.37947,-3.66172 z"
           id="path3196" />
        <path
           style="fill:#00ffff;fill-opacity:1;stroke:none"
           d="M 590.24443,595.10871 C 575.23692,580.04219 528.3955,551.97677 468.6653,522.26358 434.21957,505.12831 405.91673,492.54711 391.03714,487.75625 l -4.3216,-1.39145 3.09242,-2.83064 3.09241,-2.83064 8.28265,3.14596 c 50.75388,19.27761 115.40208,48.31225 158.55865,71.21147 19.61192,10.40625 47.13202,26.26861 47.13202,27.16653 0,1.10584 -7.85819,11.94398 -11.61224,16.01577 l -0.91076,0.98785 z"
           id="path3198" />
        <path
           style="fill:#0080ff;fill-opacity:1;stroke:none"
           d="M 563.38472,601.62423 C 530.30598,580.80537 463.16962,539.80674 410.23605,508.09985 l -28.82943,-17.26865 1.71424,-1.49556 c 1.99571,-1.74111 2.05039,-1.73696 9.04029,0.68555 16.86742,5.8458 41.80241,17.0134 76.04877,34.05985 58.28219,29.01053 104.17306,56.34351 119.82162,71.36674 5.32754,5.11466 5.28358,4.98444 2.60668,7.72105 -2.45081,2.50548 -10.21894,8.58878 -10.88788,8.52641 -0.23499,-0.0219 -7.59952,-4.55387 -16.36562,-10.07101 z"
           id="path3200" />
        <path
           style="fill:#0000ff;fill-opacity:1;stroke:none"
           d="m 526.95417,617.60684 c -32.5858,-21.87785 -74.53175,-54.4789 -117.94389,-91.66785 -16.06054,-13.75824 -33.6119,-29.72339 -33.36848,-30.35279 0.0691,-0.17864 1.07735,-1.04757 2.24059,-1.93096 l 2.11498,-1.60617 34.31557,20.59446 c 34.385,20.63614 78.77068,47.57154 106.49358,64.62552 24.38133,14.99838 55.74103,34.55094 56.41199,35.17249 0.52332,0.48478 0.33319,0.73175 -1.14322,1.48496 -9.0301,4.60681 -25.52597,9.54589 -35.91504,10.75344 l -2.27691,0.26465 z"
           id="path3202" />
        <path
           style="fill:#8000ff;fill-opacity:1;stroke:none"
           d="m 521.03421,624.24269 c -48.8506,-6.39391 -102.03884,-46.23218 -133.43155,-99.94093 -4.94742,-8.46437 -13.37128,-25.71098 -12.825,-26.25726 0.11984,-0.11984 2.23586,1.70459 4.70226,4.05429 13.8374,13.18271 47.44774,41.82301 73.93009,62.99788 27.89601,22.30521 50.20913,38.94642 71.06276,52.99889 l 10.15874,6.84559 -4.52174,-0.0512 c -2.48696,-0.0282 -6.57096,-0.31942 -9.07556,-0.64724 z"
           id="path3204" />
      </g>
    </g>
    <g
       id="g3085">
      <g
         style="stroke:#000000;stroke-width:2.11531"
         transform="matrix(0.92268172,0,0,0.92268172,32.020628,51.612954)"
         id="g2996">
        <path
           style="fill:#ffffff;stroke:#000000;stroke-width:2.11531"
           d="M 661.08159,68.607533 C 499.6818,105.52256 447.65987,230.98031 360.00001,363.25842 c 35.15263,28.94659 104.85398,8.91557 143.45286,-0.002 C 681.86106,322.04028 661.19211,321.36012 672.36401,225.45186 709.44946,162.89703 777.1923,28.789229 661.08159,68.607533 Z"
           id="path2998"
           sodipodi:nodetypes="ccscc" />
        <g
           style="stroke:#000000;stroke-width:2.11531"
           id="g3000">
          <path
             sodipodi:nodetypes="ccccc"
             id="path3002"
             d="m 420.21512,306.82681 c 0,0 124.82121,-137.82531 302.71555,-192.46369 l -11.06,33.41226 c -120.46851,40.9135 -192.8643,88.6478 -286.74337,172.30889 z"
             style="fill:none;stroke:#000000;stroke-width:2.11531;stroke-linecap:butt;stroke-linejoin:miter;stroke-opacity:1" />
          <path
             style="fill:none;stroke:#000000;stroke-width:2.11531;stroke-linecap:butt;stroke-linejoin:miter;stroke-opacity:1"
             d="m 429.82306,339.78509 c 0,0 135.74742,-123.61089 269.20526,-163.4371 l -16.97109,32.28222 C 572.53684,258.69027 522.9818,293.79061 431.67877,359.35618 Z"
             id="path3004"
             sodipodi:nodetypes="ccccc" />
          <path
             sodipodi:nodetypes="ccccc"
             id="path3006"
             d="m 431.68737,366.78491 c 0,0 109.61684,-70.11113 239.33524,-128.89578 l -3.23939,33.51643 c -108.23238,53.2801 -132.97507,61.04511 -236.51424,103.42643 z"
             style="fill:none;stroke:#000000;stroke-width:2.11531;stroke-linecap:butt;stroke-linejoin:miter;stroke-opacity:1" />
          <path
             style="fill:none;stroke:#000000;stroke-width:2.11531;stroke-linecap:butt;stroke-linejoin:miter;stroke-opacity:1"
             d="m 412.22397,290.967 c 0,0 112.32317,-188.50569 307.6057,-220.603817 l 5.83072,15.447803 C 575.56755,134.45257 504.6032,203.70285 415.23218,296.38005 Z"
             id="path3008"
             sodipodi:nodetypes="ccccc" />
        </g>
      </g>
      <g
         style="stroke:#000000;stroke-width:2.11531"
         id="g2973"
         transform="matrix(0.92268172,0,0,0.92268172,32.020628,51.612954)">
        <path
           sodipodi:nodetypes="cccc"
           id="path3069"
           d="m 503.45287,363.25674 c 0,0 -143.45286,0.002 -143.45286,0.002 -49.78718,193.29403 249.49883,391.13562 286.91343,143.45888 0,-79.23108 -64.22949,-143.46056 -143.46057,-143.46056 z"
           style="fill:#ffffff;stroke:#000000;stroke-width:2.11531" />
        <g
           style="stroke:#000000;stroke-width:2.11531"
           id="g2965">
          <path
             style="fill:none;stroke:#000000;stroke-width:2.11531;stroke-linecap:butt;stroke-linejoin:miter;stroke-opacity:1"
             d="m 429.67128,387.60247 c 0,0 103.11253,-19.62222 198.33064,47.87245 l 9.54693,20.15106 C 613.8815,426.17527 463.66876,391.12253 426.37993,402.20054 c 0,0 3.17284,-13.86423 3.29135,-14.59807 z"
             id="path2947"
             sodipodi:nodetypes="cccsc" />
          <path
             sodipodi:nodetypes="cccsc"
             id="path2949"
             d="m 421.50951,416.53876 c 0,0 126.43119,-10.06388 221.6493,57.43079 l 3.11123,19.0717 c -23.66735,-29.45071 -193.06305,-75.31963 -230.35188,-64.24162 0,0 5.47284,-11.52702 5.59135,-12.26087 z"
             style="fill:none;stroke:#000000;stroke-width:2.11531;stroke-linecap:butt;stroke-linejoin:miter;stroke-opacity:1" />
          <path
             style="fill:none;stroke:#000000;stroke-width:2.11531;stroke-linecap:butt;stroke-linejoin:miter;stroke-opacity:1"
             d="m 408.92962,440.89764 c 0,0 133.95982,4.09008 237.79108,67.0767 l -3.08353,16.43956 c -24.71431,-28.05476 -202.42656,-79.40427 -240.41336,-75.306 0,0 5.5873,-7.47641 5.70581,-8.21026 z"
             id="path2951"
             sodipodi:nodetypes="cccsc" />
          <path
             sodipodi:nodetypes="cccsc"
             id="path2953"
             d="m 390.61551,463.79781 c 0,0 135.80831,49.78365 234.24646,110.83825 -6.76585,10.31085 -5.99274,9.89228 -15.49978,20.72066 C 591.27505,567.0609 421.0451,481.55336 382.2272,471.53744 c 0,0 8.2698,-7.00578 8.38831,-7.73963 z"
             style="fill:none;stroke:#000000;stroke-width:2.11531;stroke-linecap:butt;stroke-linejoin:miter;stroke-opacity:1" />
          <path
             style="fill:none;stroke:#000000;stroke-width:2.11531;stroke-linecap:butt;stroke-linejoin:miter;stroke-opacity:1"
             d="m 376.89403,476.08869 c 0,0 124.22843,73.80274 216.87051,132.28131 -12.04374,6.57068 -27.01593,11.62444 -45.31364,14.10745 -64.11621,-40.33456 -158.34372,-121.56399 -178.13642,-141.50984 0,0 6.46105,-4.14507 6.57955,-4.87892 z"
             id="path2955"
             sodipodi:nodetypes="cccsc" />
          <path
             style="fill:none;stroke:#000000;stroke-width:2.11531;stroke-linecap:butt;stroke-linejoin:miter;stroke-opacity:1"
             d="m 399.3475,454.06221 c 0,0 206.81524,44.72861 241.71725,80.78694 0,0 -5.70466,17.63389 -5.70466,17.63389 -14.81216,-19.62728 -230.28917,-92.88625 -240.56241,-93.12702 0,0 4.43131,-4.55996 4.54982,-5.29381 z"
             id="path2957"
             sodipodi:nodetypes="cccsc" />
        </g>
      </g>
      <g
         id="g2962">
        <path
           id="path2917"
           d="m 411.32859,316.72771 c -0.65564,-1.26786 -0.56998,-1.43728 6.04419,-11.95378 31.93668,-50.77914 55.32495,-82.11643 80.60344,-107.99829 39.35479,-40.29413 83.63666,-65.83319 137.58652,-79.35145 3.63167,-0.90999 8.85718,-2.34835 11.61224,-3.19635 11.56243,-3.5589 18.9345,-4.87434 27.32291,-4.87539 8.56951,-0.001 13.5614,1.38827 18.15578,5.05313 1.17755,0.93932 1.55519,1.47793 1.13845,1.62373 -0.34297,0.12 -3.49248,0.75493 -6.99892,1.41096 -85.00567,15.90395 -170.46929,70.51941 -238.68385,152.53074 -12.25647,14.73542 -22.70648,28.63198 -30.97551,41.19165 -2.46428,3.74294 -4.62893,6.81565 -4.81035,6.82824 -0.18141,0.0126 -0.62912,-0.55584 -0.9949,-1.26319 z"
           style="fill:#ff0000;fill-opacity:1;stroke:none" />
        <path
           id="path2919"
           d="m 414.38615,321.70121 c -0.87377,-1.52315 -0.88907,-1.71815 -0.21778,-2.77665 16.32432,-25.74082 40.30684,-55.4764 64.95796,-80.5404 63.42973,-64.49213 134.48085,-105.1143 208.78326,-119.36799 4.08898,-0.7844 7.57795,-1.25994 7.75326,-1.05675 0.49378,0.57232 4.67692,12.02067 4.46844,12.22915 -0.10159,0.10159 -4.47621,1.64199 -9.72138,3.42311 -69.77806,23.69483 -126.18223,54.66695 -179.16641,98.38214 -21.73229,17.93047 -35.07394,30.36074 -67.88175,63.24468 l -28.03584,28.10091 z"
           style="fill:#ff8000;fill-opacity:1;stroke:none" />
        <path
           id="path2921"
           d="m 418.13871,329.18777 -1.73067,-3.88405 4.78582,-5.12495 c 9.41947,-10.08697 46.29623,-46.81714 56.35139,-56.12738 25.26643,-23.39463 45.84844,-40.34993 68.16427,-56.15319 42.61432,-30.17792 89.17079,-53.40831 146.21754,-72.95851 4.57685,-1.5685 8.47037,-2.70185 8.65226,-2.51854 0.99877,1.00655 -0.71939,19.42342 -2.16737,23.23188 -0.29053,0.76416 -1.34321,1.27752 -4.63123,2.25852 -5.64261,1.6835 -24.01944,8.18644 -32.15939,11.38011 -74.02538,29.04358 -147.7642,76.16696 -214.13128,136.84228 -2.88029,2.63327 -10.27324,9.77154 -16.42878,15.86282 l -11.19189,11.07506 z"
           style="fill:#ffff00;fill-opacity:1;stroke:none" />
        <path
           id="path2923"
           d="m 422.96098,340.38206 c -1.0357,-2.7021 -1.88308,-5.07375 -1.88308,-5.27035 0,-1.32056 22.28541,-23.07769 36.79024,-35.91812 72.73252,-64.38662 154.53309,-113.03583 232.55438,-138.30697 3.74934,-1.21442 6.87213,-2.15289 6.93952,-2.0855 0.27367,0.27366 -9.01878,27.84216 -9.54487,28.31737 -0.31272,0.28248 -3.13011,1.39153 -6.26086,2.46455 -3.13075,1.07302 -11.63501,4.16171 -18.89835,6.86376 -86.45586,32.16262 -150.61266,71.79193 -230.4755,142.3635 l -7.33841,6.48466 z"
           style="fill:#80ff00;fill-opacity:1;stroke:none" />
        <path
           id="path2925"
           d="m 428.80315,361.8443 c -0.009,-0.68877 -0.79264,-4.27065 -1.74156,-7.95974 l -1.7253,-6.70744 9.82458,-8.56553 c 34.84367,-30.37834 60.26449,-50.33956 88.60563,-69.57591 40.17875,-27.27103 84.05659,-49.86681 133.19919,-68.59358 11.20532,-4.27001 29.73527,-10.86231 29.94442,-10.65317 0.17416,0.17416 -6.62803,15.61635 -9.14233,20.75475 l -1.44837,2.95999 -10.92916,3.6866 c -21.89202,7.38459 -37.99053,14.22476 -62.32283,26.48065 -54.07619,27.23754 -120.06592,72.47338 -171.03741,117.24583 -1.36491,1.19892 -2.64568,2.17985 -2.84614,2.17985 -0.20046,0 -0.37179,-0.56354 -0.38072,-1.2523 z"
           style="fill:#00ff00;fill-opacity:1;stroke:none" />
        <path
           id="path2927"
           d="m 430.49468,373.32225 -0.79408,-7.92442 1.7837,-1.61146 c 4.66092,-4.21086 21.52245,-18.28146 30.43684,-25.39891 61.59318,-49.17741 125.35,-88.38505 179.56156,-110.42246 13.0057,-5.28692 32.65211,-12.24391 33.15536,-11.74066 0.18961,0.1896 -10.58621,20.9782 -13.03103,25.13936 l -1.27727,2.17394 -13.40812,6.27772 c -36.36766,17.02746 -70.439,35.04333 -99.39902,52.55913 -26.57382,16.07257 -59.46392,38.2897 -104.81408,70.8015 -5.76058,4.12979 -10.68663,7.63516 -10.94678,7.7897 -0.30848,0.18325 -0.7492,-2.47534 -1.26708,-7.64344 z"
           style="fill:#00ff80;fill-opacity:1;stroke:none" />
        <path
           id="path2929"
           d="m 431.0963,384.807 c 0,-0.87316 3.13233,-3.29618 17.87374,-13.82629 65.21182,-46.58224 96.63686,-66.81131 140.65597,-90.54374 18.32606,-9.8803 68.37186,-34.40387 68.97596,-33.79978 0.0909,0.0909 -1.45436,2.96493 -3.43385,6.3868 l -3.59908,6.22158 -0.55035,5.36272 c -0.30269,2.9495 -0.77905,5.58673 -1.05858,5.86052 -0.27952,0.27379 -5.22143,2.66858 -10.98201,5.32177 -61.4499,28.30235 -137.82869,69.4273 -198.37064,106.80952 -4.56779,2.82043 -5.57653,3.26559 -7.39995,3.26559 -1.90595,0 -2.11121,-0.10293 -2.11121,-1.05869 z"
           style="fill:#00ffff;fill-opacity:1;stroke:none" />
        <path
           id="path2931"
           d="m 439.54363,385.48601 c 1.29707,-1.13837 24.97748,-15.34417 43.01082,-25.80205 35.61804,-20.65558 67.24581,-37.8402 103.14398,-56.0422 24.62538,-12.48618 63.72125,-31.17842 64.14389,-30.66802 0.0842,0.10172 -0.42167,6.02522 -1.12421,13.16333 -0.70253,7.13811 -1.28591,13.50062 -1.29639,14.13891 -0.0176,1.07045 -1.28269,1.7746 -16.29895,9.07196 -32.64625,15.86487 -58.667,27.95692 -82.08258,38.14441 -19.27874,8.38767 -29.1505,12.47451 -84.33159,34.91272 l -8.51051,3.46062 h -8.54354 c -4.69894,0 -8.34885,-0.17086 -8.11092,-0.37968 z"
           style="fill:#0080ff;fill-opacity:1;stroke:none" />
        <path
           id="path2933"
           d="m 461.64483,385.67966 c 0.10436,-0.10232 10.12845,-4.22206 22.27576,-9.15499 64.36608,-26.13855 92.90812,-38.77602 147.01472,-65.09323 8.60039,-4.18319 15.72906,-7.51381 15.8415,-7.40137 0.38794,0.38795 -1.26601,10.09656 -2.60425,15.28678 -3.74062,14.50754 -11.32997,23.60973 -26.36971,31.62616 -15.71721,8.37754 -47.63784,17.81611 -106.51342,31.49484 l -14.75398,3.42784 h -17.54018 c -9.6471,0 -17.4548,-0.0837 -17.35044,-0.18603 z"
           style="fill:#0000ff;fill-opacity:1;stroke:none" />
        <path
           id="path2936"
           d="m 601.60734,445.7727 c -36.94516,-23.4449 -79.48772,-36.79406 -125.5926,-39.40892 -14.33705,-0.81313 -29.37708,-0.40419 -41.27539,1.12228 -2.62983,0.33739 -4.84341,0.55243 -4.91907,0.47787 -0.0757,-0.0746 0.18048,-3.0191 0.56922,-6.54342 0.38874,-3.52431 0.7068,-8.06847 0.7068,-10.09813 v -3.69029 l 39.04899,0.1841 c 41.73448,0.19675 40.93502,0.15724 53.02464,2.62094 30.42646,6.20052 58.07514,23.4865 77.35575,48.3629 3.4675,4.47386 7.44771,10.32658 7.19475,10.57955 -0.0917,0.0917 -2.84255,-1.53144 -6.11309,-3.60688 z"
           style="fill:#8000ff;fill-opacity:1;stroke:none" />
        <path
           id="path2938"
           d="m 616.02388,466.74724 c -0.29843,-0.35959 -2.22316,-1.76981 -4.27717,-3.13383 -27.59939,-18.32804 -102.09433,-39.03968 -155.25394,-43.16486 -7.77487,-0.60333 -23.15477,-0.33832 -26.952,0.4644 -1.23123,0.26028 -2.3253,0.38653 -2.43127,0.28057 -0.1806,-0.1806 2.06925,-10.79298 2.34702,-11.07075 0.34623,-0.34623 10.89051,-1.52214 17.34268,-1.93408 25.27681,-1.61377 54.42448,1.13116 79.91293,7.52567 28.97548,7.26933 54.29689,18.44551 78.75904,34.76209 l 5.20052,3.46882 3.12486,6.55043 c 2.92403,6.12943 3.52434,7.81434 2.22733,6.25154 z"
           style="fill:#ff00ff;fill-opacity:1;stroke:none" />
        <path
           id="path2940"
           d="m 617.99196,482.8888 c -18.61808,-12.16949 -40.44344,-22.44893 -64.17026,-30.22331 -36.53568,-11.97135 -80.42059,-18.5637 -119.87938,-18.00815 -6.32418,0.089 -11.49845,0.12989 -11.49839,0.0908 8.3e-4,-0.5132 3.67948,-10.84195 3.95193,-11.09605 1.59556,-1.48809 19.83108,-2.30863 30.83504,-1.38747 36.9123,3.08997 85.13083,14.00091 120.95373,27.36955 18.55218,6.92343 32.21293,14.09184 38.76565,20.34207 2.59347,2.47376 2.7522,2.76182 4.44519,8.06712 1.73305,5.43084 2.5422,8.47086 2.24968,8.45214 -0.0825,-0.005 -2.62645,-1.62828 -5.65319,-3.60667 z"
           style="fill:#ff0080;fill-opacity:1;stroke:none" />
        <path
           id="path2942"
           d="m 623.81648,501.11677 c -27.08944,-21.74071 -133.00847,-53.42104 -187.17661,-55.98443 -6.96803,-0.32974 -16.57146,-0.0136 -18.18042,0.5986 -0.85755,0.32626 -0.74265,-0.0828 1.29659,-4.61614 l 1.8795,-4.17822 3.47808,-0.32713 c 5.13476,-0.48294 32.24774,0.11328 41.95784,0.92266 59.61417,4.96909 111.09958,21.18703 150.95908,47.55221 3.25598,2.15368 6.06158,4.02502 6.23466,4.15854 0.32942,0.25413 2.72083,13.73221 2.47934,13.97369 -0.0763,0.0763 -1.39395,-0.86857 -2.92806,-2.09978 z"
           style="fill:#ff0000;fill-opacity:1;stroke:none" />
        <path
           id="path2944"
           d="m 621.21821,514.91112 c -7.8553,-4.55621 -26.68712,-13.83046 -36.88592,-18.1655 -41.05194,-17.44924 -92.00713,-30.46645 -142.53452,-36.41239 -10.36715,-1.21999 -25.08925,-2.51721 -28.56757,-2.51721 -1.19389,0 -2.1707,-0.12281 -2.1707,-0.2729 0,-0.1501 0.69091,-1.43086 1.53535,-2.84614 0.84444,-1.41528 2.07152,-3.52769 2.72684,-4.69424 1.17202,-2.08636 1.24177,-2.12878 4.27076,-2.59759 13.35876,-2.06761 36.78972,0.33145 68.5575,7.0195 59.26185,12.47636 120.54003,34.88202 136.80457,50.02101 l 2.59307,2.41362 0.19181,5.76126 c 0.10549,3.16869 0.0134,5.75293 -0.20471,5.74276 -0.21808,-0.0102 -3.0605,-1.56366 -6.31648,-3.45218 z"
           style="fill:#ff8000;fill-opacity:1;stroke:none" />
        <path
           id="path2946"
           d="m 623.73384,532.28269 c -2.95365,-3.14402 -14.62164,-9.90358 -26.33255,-15.25511 -50.25263,-22.96394 -147.46164,-50.26202 -184.39137,-51.78051 l -6.92953,-0.28493 1.94366,-2.77614 1.94365,-2.77615 2.25358,0.10202 c 15.78522,0.71454 41.0604,3.70591 60.99784,7.21921 51.20684,9.02346 95.94367,23.2929 133.90216,42.70994 14.06379,7.1941 20.2161,10.81223 20.23616,11.90076 0.0253,1.37055 -1.87506,11.33284 -2.23791,11.73211 -0.17372,0.19117 -0.79728,-0.16488 -1.38569,-0.7912 z"
           style="fill:#ffff00;fill-opacity:1;stroke:none" />
        <path
           id="path2948"
           d="m 618.96042,540.16532 c -24.10007,-18.21627 -98.45682,-42.77619 -202.40275,-66.85334 -7.62056,-1.76516 -13.94527,-3.29908 -14.05491,-3.40873 -0.10964,-0.10964 0.25041,-0.77367 0.8001,-1.47562 1.30176,-1.66233 3.00223,-1.89021 10.60443,-1.42114 41.86813,2.58338 145.01597,32.57831 190.58455,55.42114 10.68275,5.3551 20.14174,11.81425 20.14174,13.75395 0,1.32839 -1.42684,6.79677 -1.76305,6.75688 -0.15739,-0.0187 -1.91694,-1.26659 -3.91011,-2.77314 z"
           style="fill:#80ff00;fill-opacity:1;stroke:none" />
        <path
           id="path2950"
           d="m 614.15979,556.85548 c -10.76944,-7.60986 -40.8356,-20.70968 -89.02714,-38.78914 -42.50604,-15.94649 -96.73587,-34.60216 -120.1657,-41.33835 l -6.77563,-1.94802 1.53874,-1.61586 1.53873,-1.61585 16.16606,3.78211 c 71.21772,16.66167 127.4341,32.99436 164.16514,47.69535 17.26535,6.91017 34.68647,16.21066 39.28844,20.97465 l 1.49175,1.54426 -2.10408,6.56923 c -1.15724,3.61308 -2.23837,6.70102 -2.40251,6.8621 -0.16414,0.16108 -1.83535,-0.79313 -3.7138,-2.12048 z"
           style="fill:#00ff00;fill-opacity:1;stroke:none" />
        <path
           id="path2952"
           d="M 601.63679,576.61429 C 574.98514,560.29904 530.91451,537.56101 490.52363,519.28598 463.92096,507.24949 428.58224,492.43712 404.68415,483.306 c -5.38489,-2.05748 -9.94575,-3.8816 -10.13524,-4.05358 -0.1895,-0.17198 0.2546,-0.88671 0.98689,-1.58829 l 1.33144,-1.2756 4.47768,1.15404 c 6.08881,1.56926 32.56526,10.05938 51.17147,16.40899 43.07891,14.70124 89.48792,31.92646 118.60982,44.02336 26.7723,11.1209 45.76588,21.04089 45.76588,23.90266 0,1.68326 -8.09472,18.46255 -8.87583,18.39843 -0.25273,-0.0208 -3.12349,-1.66852 -6.37947,-3.66172 z"
           style="fill:#00ff80;fill-opacity:1;stroke:none" />
        <path
           id="path2954"
           d="M 590.24443,595.10871 C 575.23692,580.04219 528.3955,551.97677 468.6653,522.26358 434.21957,505.12831 405.91673,492.54711 391.03714,487.75625 l -4.3216,-1.39145 3.09242,-2.83064 3.09241,-2.83064 8.28265,3.14596 c 50.75388,19.27761 115.40208,48.31225 158.55865,71.21147 19.61192,10.40625 47.13202,26.26861 47.13202,27.16653 0,1.10584 -7.85819,11.94398 -11.61224,16.01577 l -0.91076,0.98785 z"
           style="fill:#00ffff;fill-opacity:1;stroke:none" />
        <path
           id="path2956"
           d="M 563.38472,601.62423 C 530.30598,580.80537 463.16962,539.80674 410.23605,508.09985 l -28.82943,-17.26865 1.71424,-1.49556 c 1.99571,-1.74111 2.05039,-1.73696 9.04029,0.68555 16.86742,5.8458 41.80241,17.0134 76.04877,34.05985 58.28219,29.01053 104.17306,56.34351 119.82162,71.36674 5.32754,5.11466 5.28358,4.98444 2.60668,7.72105 -2.45081,2.50548 -10.21894,8.58878 -10.88788,8.52641 -0.23499,-0.0219 -7.59952,-4.55387 -16.36562,-10.07101 z"
           style="fill:#0080ff;fill-opacity:1;stroke:none" />
        <path
           id="path2958"
           d="m 526.95417,617.60684 c -32.5858,-21.87785 -74.53175,-54.4789 -117.94389,-91.66785 -16.06054,-13.75824 -33.6119,-29.72339 -33.36848,-30.35279 0.0691,-0.17864 1.07735,-1.04757 2.24059,-1.93096 l 2.11498,-1.60617 34.31557,20.59446 c 34.385,20.63614 78.77068,47.57154 106.49358,64.62552 24.38133,14.99838 55.74103,34.55094 56.41199,35.17249 0.52332,0.48478 0.33319,0.73175 -1.14322,1.48496 -9.0301,4.60681 -25.52597,9.54589 -35.91504,10.75344 l -2.27691,0.26465 z"
           style="fill:#0000ff;fill-opacity:1;stroke:none" />
        <path
           id="path2960"
           d="m 521.03421,624.24269 c -48.8506,-6.39391 -102.03884,-46.23218 -133.43155,-99.94093 -4.94742,-8.46437 -13.37128,-25.71098 -12.825,-26.25726 0.11984,-0.11984 2.23586,1.70459 4.70226,4.05429 13.8374,13.18271 47.44774,41.82301 73.93009,62.99788 27.89601,22.30521 50.20913,38.94642 71.06276,52.99889 l 10.15874,6.84559 -4.52174,-0.0512 c -2.48696,-0.0282 -6.57096,-0.31942 -9.07556,-0.64724 z"
           style="fill:#8000ff;fill-opacity:1;stroke:none" />
      </g>
    </g>
    <g
       id="g3072">
      <path
         sodipodi:nodetypes="ccc"
         id="path3023"
         d="m 346.07123,256.48878 c 1.82426,1.28771 -17.3431,-144.73006 -51.89288,-154.96188 42.11868,10.24301 52.00374,109.09896 51.89288,154.96188 z"
         style="fill:none;stroke:#000000;stroke-width:1.95175;stroke-linecap:butt;stroke-linejoin:miter;stroke-opacity:1" />
      <path
         style="fill:none;stroke:#000000;stroke-width:1.95175;stroke-linecap:butt;stroke-linejoin:miter;stroke-opacity:1"
         d="m 384.78723,256.48878 c -1.82426,1.28771 17.3431,-144.73006 51.89288,-154.96188 -42.11868,10.24301 -52.00374,109.09896 -51.89288,154.96188 z"
         id="path2935"
         sodipodi:nodetypes="ccc" />
      <path
         style="fill:#ffffff;stroke:#000000;stroke-width:1.95175"
         d="m 364.18606,272.11725 c -39.55934,22.88859 -66.18422,65.65961 -66.18422,114.65037 0,48.99148 26.62391,91.7965 66.18422,114.68484 39.57289,-22.88509 66.18421,-65.68394 66.18421,-114.68484 0,-49.00027 -26.61217,-91.76506 -66.18421,-114.65037 z"
         id="path3086" />
      <circle
         style="fill:#ffffff;fill-opacity:1;stroke:#000000;stroke-width:1.76938"
         id="path3103"
         transform="matrix(1.1030703,0,0,1.1030703,-15.870008,28.455134)"
         cx="344.54382"
         cy="220.89445"
         r="49.588551" />
      <g
         style="stroke:#000000;stroke-width:1.76938"
         id="g3113"
         transform="matrix(1.1030703,0,0,1.1030703,-50.678897,-8.4261013)">
        <circle
           transform="matrix(0.77083334,0,0,0.77083334,218.69411,47.549566)"
           id="path3105"
           style="fill:#ffffff;fill-opacity:1;stroke:#000000;stroke-width:2.29542;stroke-miterlimit:4;stroke-dasharray:none;stroke-opacity:1"
           cx="182.89803"
           cy="249.87477"
           r="15.456172" />
        <circle
           style="fill:#000000;fill-opacity:1;stroke:#000000;stroke-width:5.30815"
           id="path3109"
           transform="matrix(0.33333334,0,0,0.33333334,298.71199,156.86978)"
           cx="182.89803"
           cy="249.87477"
           r="15.456172" />
      </g>
      <g
         style="stroke:#000000;stroke-width:1.76938"
         id="g3117"
         transform="matrix(1.1030703,0,0,1.1030703,-11.962905,-8.4261013)">
        <circle
           style="fill:#ffffff;fill-opacity:1;stroke:#000000;stroke-width:2.29542;stroke-miterlimit:4;stroke-dasharray:none;stroke-opacity:1"
           id="path3119"
           transform="matrix(0.77083334,0,0,0.77083334,218.69411,47.549566)"
           cx="182.89803"
           cy="249.87477"
           r="15.456172" />
        <circle
           transform="matrix(0.33333334,0,0,0.33333334,298.71199,156.86978)"
           id="path3121"
           style="fill:#000000;fill-opacity:1;stroke:#000000;stroke-width:5.30815"
           cx="182.89803"
           cy="249.87477"
           r="15.456172" />
      </g>
      <path
         style="fill:#ffffff;fill-opacity:1;stroke:#000000;stroke-width:1.95175;stroke-miterlimit:4;stroke-opacity:1"
         d="m 381.23528,286.91104 c 0,9.66732 -7.71272,17.50424 -17.22684,17.50424 -9.51412,0 -17.22684,-7.83692 -17.22684,-17.50424 11.99053,9.1075 23.40937,7.9246 34.45368,0 z"
         id="path3139"
         sodipodi:nodetypes="cscc" />
    </g>
    <path
       id="path3206"
       d="m 310.55329,330.44248 h 107.2717 l 6.08034,15.50106 H 304.46678 Z"
       style="fill:none;stroke:#000000;stroke-width:0.975877px;stroke-linecap:butt;stroke-linejoin:miter;stroke-opacity:1" />
    <path
       id="path3208"
       d="m 300.24792,362.36208 h 127.87786 l 2.1353,20.17207 h -132.1928 z"
       style="fill:none;stroke:#000000;stroke-width:0.975877px;stroke-linecap:butt;stroke-linejoin:miter;stroke-opacity:1" />
    <path
       id="path3210"
       d="m 299.10346,403.92241 h 130.16602 l -3.84726,18.83404 H 302.95298 Z"
       style="fill:none;stroke:#000000;stroke-width:0.975877px;stroke-linecap:butt;stroke-linejoin:miter;stroke-opacity:1" />
    <path
       id="path3214"
       d="m 308.39781,438.25127 h 112.64634 l -8.96731,15.722 H 316.3028 Z"
       style="fill:none;stroke:#000000;stroke-width:0.975877px;stroke-linecap:butt;stroke-linejoin:miter;stroke-opacity:1" />
    <path
       id="path3216"
       d="m 328.7403,471.59713 h 72.48195 l -18.69575,17.06896 h -36.67446 z"
       style="fill:none;stroke:#000000;stroke-width:0.975877px;stroke-linecap:butt;stroke-linejoin:miter;stroke-opacity:1" />
    <path
       id="path3218"
       d="m 357.42397,496.08343 c -3.36494,-2.2851 -6.84257,-4.736 -7.72808,-5.44644 l -1.61002,-1.29171 h 16.10018 16.10018 l -1.61002,1.29373 c -2.86828,2.30482 -13.95135,9.62614 -14.5514,9.61245 -0.32052,-0.007 -3.3359,-1.88293 -6.70084,-4.16803 z"
       style="fill:#ff0000;fill-opacity:1;stroke:none" />
    <path
       id="path3220"
       d="m 338.10376,479.97853 -8.03076,-8.05009 h 34.00593 34.00594 l -3.27392,3.76411 c -1.80065,2.07026 -5.42037,5.6928 -8.04381,8.05009 l -4.76991,4.28598 h -17.93135 -17.93136 z"
       style="fill:#ff8000;fill-opacity:1;stroke:none" />
    <path
       id="path3222"
       d="m 327.47415,468.54741 c -2.44445,-2.83752 -9.33462,-12.87308 -9.33462,-13.59591 0,-0.22619 20.75194,-0.41125 46.11542,-0.41125 41.91792,0 46.07959,0.0933 45.72185,1.02561 -0.58081,1.51356 -6.4794,9.92704 -9.13409,13.02845 l -2.30265,2.69013 h -34.35401 -34.35402 z"
       style="fill:#ffff00;fill-opacity:1;stroke:none" />
    <path
       id="path3224"
       d="m 316.16988,451.80322 c -1.39853,-2.24009 -6.40244,-12.40257 -6.40244,-13.00277 0,-0.19821 24.48837,-0.36038 54.41861,-0.36038 29.93023,0 54.4186,0.1639 54.4186,0.36421 0,0.77792 -4.37124,9.75965 -6.01291,12.35493 l -1.73133,2.73703 H 364.1685 317.4766 Z"
       style="fill:#80ff00;fill-opacity:1;stroke:none" />
    <path
       id="path3226"
       d="m 308.51225,436.27237 c -1.12927,-2.97021 -4.54087,-12.75059 -4.54087,-13.01778 0,-0.14888 27.0966,-0.27069 60.21467,-0.27069 33.11806,0 60.19865,0.21735 60.17908,0.48301 -0.0196,0.26565 -1.1178,3.52593 -2.44053,7.24508 l -2.40495,6.76207 -55.21268,0.1646 -55.21268,0.1646 z"
       style="fill:#00ff80;fill-opacity:1;stroke:none" />
    <path
       id="path3228"
       d="m 303.66223,421.53819 c -0.86374,-2.57376 -3.55444,-15.25037 -3.55479,-16.74749 -6e-5,-0.26566 28.83531,-0.48301 64.07861,-0.48301 37.1143,0 64.07871,0.24172 64.07871,0.57442 0,0.8077 -2.46224,12.8688 -3.1038,15.20376 l -0.53085,1.93202 -60.34831,0.16431 c -47.95379,0.13056 -60.40402,-0.002 -60.61957,-0.64401 z"
       style="fill:#00ffff;fill-opacity:1;stroke:none" />
    <path
       id="path3230"
       d="m 299.83033,402.58271 c -0.22815,-0.59454 -0.59407,-5.23139 -0.81317,-10.30412 l -0.39835,-9.22313 h 65.56724 65.56723 l -0.39835,9.22313 c -0.21909,5.07273 -0.58502,9.70958 -0.81316,10.30412 -0.38448,1.00192 -5.09101,1.08098 -64.35572,1.08098 -59.26472,0 -63.97125,-0.0791 -64.35572,-1.08098 z"
       style="fill:#0080ff;fill-opacity:1;stroke:none" />
    <path
       id="path3232"
       d="m 299.21517,381.88693 c -0.33515,-0.54228 0.6634,-11.89463 1.45501,-16.54167 l 0.43881,-2.57603 h 63.09488 63.09488 l 0.73391,5.15206 c 0.40365,2.83363 0.83835,7.18068 0.96601,9.66011 l 0.2321,4.50805 -64.84381,0.16407 c -35.6641,0.0902 -64.9914,-0.0747 -65.17179,-0.36659 z"
       style="fill:#0000ff;fill-opacity:1;stroke:none" />
    <path
       id="path3234"
       d="m 301.39535,362.36208 c 0,-0.981 1.78397,-9.24506 2.98089,-12.956 l 0.98667,-3.05903 h 58.82314 58.82314 l 3.20765,7.38912 c 1.19692,3.71093 1.94868,8.02031 1.94868,9.00131 0,0.51519 -18.5482,-0.93426 -63.97947,-0.93426 -45.43128,0 -62.7907,1.07406 -62.7907,0.55886 z"
       style="fill:#8000ff;fill-opacity:1;stroke:none"
       sodipodi:nodetypes="ccccccssc" />
    <path
       id="path3236"
       d="m 305.90056,344.89803 c -0.002,-0.44275 1.18953,-3.77549 2.64687,-7.40608 l 2.64971,-6.60107 h 52.98891 52.9889 l 2.64971,6.60107 c 1.45734,3.63059 2.64843,6.96333 2.64687,7.40608 -0.002,0.63806 -12.09022,0.80501 -58.28548,0.80501 -46.19527,0 -58.28324,-0.16695 -58.28549,-0.80501 z"
       style="fill:#ff00ff;fill-opacity:1;stroke:none" />
    <path
       id="path3238"
       d="m 314.47156,324.83783 c 1.58259,-2.97498 4.2135,-7.47437 5.84645,-9.99866 l 2.96901,-4.58962 5.5614,4.49888 c 6.4254,5.19783 13.82832,9.07524 21.16947,11.0879 4.1632,1.14138 6.88255,1.41249 14.16816,1.41249 7.2856,0 10.00495,-0.27111 14.16815,-1.41249 7.34115,-2.01266 14.74407,-5.89007 21.16947,-11.0879 l 5.5614,-4.49888 2.96901,4.58962 c 1.63295,2.52429 4.26386,7.02368 5.84646,9.99866 l 2.87745,5.40904 h -52.59194 -52.59194 z"
       style="fill:#ff0080;fill-opacity:1;stroke:none" />
    <path
       id="path3240"
       d="m 361.20226,303.12945 c -6.13768,-0.91863 -11.52185,-6.02971 -13.0531,-12.39105 -0.24281,-1.00873 -0.21148,-1.73157 0.0696,-1.60633 0.2811,0.12525 1.97845,1.00049 3.77189,1.94497 7.36721,3.87983 15.48528,3.86501 23.83761,-0.0435 4.69155,-2.19545 5.05771,-1.8405 2.93095,2.84123 -3.03834,6.68843 -10.04086,10.37962 -17.55697,9.25469 z"
       style="fill:#ff00ff;fill-opacity:1;stroke:none" />
    <path
       id="path3242"
       d="m 353.0427,324.75508 c -19.70439,-4.27821 -35.10051,-18.86917 -40.83782,-38.70215 -1.92353,-6.64932 -2.05502,-20.74655 -0.25455,-27.29085 4.81173,-17.48955 18.86255,-32.45577 35.39426,-37.70016 11.27603,-3.57712 22.43101,-3.56978 33.7533,0.0222 16.45905,5.22166 30.52105,20.22078 35.32387,37.67793 1.80047,6.5443 1.66898,20.64153 -0.25455,27.29085 -5.77899,19.97708 -21.2071,34.50799 -41.11743,38.7263 -5.48329,1.16172 -16.60142,1.14952 -22.00708,-0.0241 z m 17.37457,-20.89625 c 4.42349,-1.68079 8.5697,-5.813 10.19712,-10.16266 1.11132,-2.97026 1.75827,-7.88579 1.03787,-7.88579 -0.13418,0 -1.94546,1.02459 -4.02504,2.27686 -9.49788,5.71939 -18.66348,5.59477 -27.90674,-0.37944 l -4.06606,-2.62802 0.44724,3.37142 c 1.6772,12.64338 12.89062,19.74878 24.31561,15.40763 z m -18.4218,-34.72361 c 8.19355,-3.72143 10.566,-14.96011 4.59388,-21.76197 -8.36001,-9.52154 -24.20946,-3.64712 -24.26751,8.99448 -0.0467,10.17741 10.4204,16.97021 19.67363,12.76749 z m 38.13255,0.21881 c 11.08199,-4.62921 11.36864,-20.42172 0.46232,-25.47118 -9.04047,-4.1856 -19.58231,2.51978 -19.62807,12.48488 -0.0457,9.94616 10.05675,16.79135 19.16575,12.9863 z"
       style="fill:#ffff00;fill-opacity:1;stroke:none" />
    <path
       id="path3244"
       d="m 387.46814,221.56797 c -0.17224,-0.2787 0.0932,-4.41312 0.58996,-9.18761 4.36051,-41.91347 13.86595,-75.15141 26.6094,-93.04583 2.68825,-3.77487 9.03664,-10.62612 9.84618,-10.62612 0.3085,0 -0.86242,2.10107 -2.60206,4.66905 -8.32286,12.28587 -16.73136,34.42655 -23.83712,62.76626 -3.29201,13.12946 -8.04028,35.65279 -8.83303,41.89936 -0.41187,3.24541 -1.10032,4.61384 -1.77333,3.52489 z"
       style="fill:#00ffff;fill-opacity:1;stroke:none" />
    <path
       id="path3246"
       d="m 340.46105,211.26655 c -8.0801,-43.62747 -19.889,-80.67013 -30.92968,-97.02156 -1.65092,-2.44504 -2.82546,-4.61857 -2.61009,-4.83005 0.50568,-0.49657 6.65385,6.09475 9.39136,10.06828 12.1918,17.69656 21.47165,48.95718 25.95584,87.43628 1.9062,16.35723 0.87588,18.83525 -1.80743,4.34705 z"
       style="fill:#00ffff;fill-opacity:1;stroke:none" />
  </g>
</svg>
