<?xml version="1.0" encoding="UTF-8" standalone="no"?>
<!-- Created with Inkscape (http://www.inkscape.org/) -->

<svg
   xmlns:dc="http://purl.org/dc/elements/1.1/"
   xmlns:cc="http://creativecommons.org/ns#"
   xmlns:rdf="http://www.w3.org/1999/02/22-rdf-syntax-ns#"
   xmlns:svg="http://www.w3.org/2000/svg"
   xmlns="http://www.w3.org/2000/svg"
   xmlns:sodipodi="http://sodipodi.sourceforge.net/DTD/sodipodi-0.dtd"
   xmlns:inkscape="http://www.inkscape.org/namespaces/inkscape"
   width="720"
   height="720"
   id="svg2"
   version="1.1"
   sodipodi:docname="butterfly.svg"
   inkscape:export-filename="C:\Users\chandlerklebs\Desktop\0\Butterfly-XL.png"
   inkscape:export-xdpi="2133.3333"
   inkscape:export-ydpi="2133.3333"
   inkscape:version="0.92.0 r15299">
  <defs
     id="defs4">
    <inkscape:perspective
       id="perspective2970"
       inkscape:persp3d-origin="606.9236060076817 : 336.7439477229683 : 1"
       inkscape:vp_z="471.3802573081991 : 725.0867079421311 : 1"
       inkscape:vp_y="-994.5218953682736 : 104.5284632676535 : 0"
       inkscape:vp_x="393.6012047878554 : -14.93154464053874 : 1"
       sodipodi:type="inkscape:persp3d" />
    <inkscape:perspective
       sodipodi:type="inkscape:persp3d"
       inkscape:vp_x="7222.759575944254 : -4129.501681696669 : 1"
       inkscape:vp_y="-8318.697462400984 : 874.3303351921777 : 0"
       inkscape:vp_z="7873.343952057307 : 2060.395180865915 : 1"
       inkscape:persp3d-origin="9007.098891111895 : -1187.905282926965 : 1"
       id="perspective10" />
    <inkscape:perspective
       id="perspective2914"
       inkscape:persp3d-origin="0.5 : 0.3333333333333333 : 1"
       inkscape:vp_z="1 : 0.5 : 1"
       inkscape:vp_y="0 : 1000 : 0"
       inkscape:vp_x="0 : 0.5 : 1"
       sodipodi:type="inkscape:persp3d" />
  </defs>
  <sodipodi:namedview
     id="base"
     pagecolor="#ffffff"
     bordercolor="#666666"
     borderopacity="1.0"
     inkscape:pageopacity="0"
     inkscape:pageshadow="2"
     inkscape:zoom="0.80694444"
     inkscape:cx="360"
     inkscape:cy="161.72117"
     inkscape:document-units="px"
     inkscape:current-layer="svg2"
     showgrid="false"
     inkscape:showpageshadow="false"
     inkscape:window-width="1366"
     inkscape:window-height="745"
     inkscape:window-x="-8"
     inkscape:window-y="-8"
     inkscape:window-maximized="1"
     inkscape:snap-grids="false"
     inkscape:snap-to-guides="false"
     inkscape:object-nodes="false"
     inkscape:snap-smooth-nodes="false"
     inkscape:snap-object-midpoints="false"
     inkscape:snap-global="true"
     inkscape:object-paths="true"
     inkscape:snap-intersection-paths="false"
     objecttolerance="30"
     showborder="true"
     borderlayer="true" />
  <metadata
     id="metadata2902">
    <rdf:RDF>
      <cc:Work
         rdf:about="">
        <dc:title></dc:title>
        <dc:format>image/svg+xml</dc:format>
        <dc:type
           rdf:resource="http://purl.org/dc/dcmitype/StillImage" />
      </cc:Work>
    </rdf:RDF>
  </metadata>
  <g
     id="g3248"
     transform="matrix(1.024719527022772,0,0,1.024719527022772,-9.646514193876949,-8.992505480794307)">
    <g
       transform="matrix(-1,0,0,1,728.3721108376162,0)"
       id="g3126">
      <g
         id="g3128"
         transform="matrix(0.922681720727841,0,0,0.922681720727841,32.0206277461311,51.61295409059449)"
         style="stroke:#000000;stroke-width:2.1153054237">
        <path
           sodipodi:nodetypes="ccscc"
           id="path3130"
           d="M 661.0815932271982,68.60753325275311 C 499.6818034623746,105.5225578709089 447.6598739324909,230.9803065209733 360.0000088986853,363.2584186689591 c 35.1526268687164,28.946591364582 104.8539819822044,8.9155675149783 143.4528652484943,-0.00167623649 C 681.8610565197742,322.0402844718251 661.1921143123737,321.3601168356648 672.3640088433462,225.4518636742259 709.4494603984835,162.8970338569695 777.1922987674995,28.78922939290604 661.0815932271982,68.607533252753 z"
           style="fill:#ffffff;stroke:#000000;stroke-width:2.1153054237" />
        <g
           id="g3132"
           style="stroke:#000000;stroke-width:2.1153054237">
          <path
             style="fill:none;stroke:#000000;stroke-width:2.1153054237;stroke-linecap:butt;stroke-linejoin:miter;stroke-opacity:1"
             d="m 420.2151172527931,306.8268115565526 c 0,0 124.821212021808,-137.8253161870765 302.7155480062314,-192.4636922857152 l -11.0599977906891,33.4122614248597 C 591.4021568962466,188.6888820163672 519.0063666235795,236.4231763000405 425.1273040521625,320.0842713024629 l -4.9121867993694,-13.2574597459103 z"
             id="path3134"
             sodipodi:nodetypes="ccccc" />
          <path
             sodipodi:nodetypes="ccccc"
             id="path3136"
             d="m 429.8230579232717,339.785086348561 c 0,0 135.7474190072576,-123.6108853455666 269.2052612620361,-163.4370968527057 l -16.9710899387028,32.2822251307704 c -109.5203889286712,50.0600550132348 -159.0754295004773,85.160391987234 -250.3784634486743,150.72596786453 l -1.8557078746589,-19.5710961425947 z"
             style="fill:none;stroke:#000000;stroke-width:2.1153054237;stroke-linecap:butt;stroke-linejoin:miter;stroke-opacity:1" />
          <path
             style="fill:none;stroke:#000000;stroke-width:2.1153054237;stroke-linecap:butt;stroke-linejoin:miter;stroke-opacity:1"
             d="m 431.6873656161051,366.7849131765004 c 0,0 109.6168460469843,-70.1111305794224 239.3352431028694,-128.8957870324753 l -3.2393899632723,33.5164385922924 C 559.5508441389805,324.6856555294268 534.8081513511031,332.450667794796 431.2689814393834,374.8319860569968 l 0.4183841767217,-8.0470728804964 z"
             id="path3138"
             sodipodi:nodetypes="ccccc" />
          <path
             sodipodi:nodetypes="ccccc"
             id="path3140"
             d="m 412.2239727188288,290.9669958180033 c 0,0 112.3231698288068,-188.5056868927255 307.6056990245512,-220.60381253224386 l 5.8307217391357,15.44780309343632 C 575.5675537355831,134.4525735715641 504.603195566277,203.7028511821795 415.2321830866843,296.3800463682505 l -3.0082103678555,-5.4130505502472 z"
             style="fill:none;stroke:#000000;stroke-width:2.1153054237;stroke-linecap:butt;stroke-linejoin:miter;stroke-opacity:1" />
        </g>
      </g>
      <g
         transform="matrix(0.922681720727841,0,0,0.922681720727841,32.02062774613116,51.61295409059835)"
         id="g3142"
         style="stroke:#000000;stroke-width:2.1153054237">
        <path
           style="fill:#ffffff;stroke:#000000;stroke-width:2.1153054237"
           d="m 503.4528741471796,363.2567424324648 c 0,0 -143.4528652484944,0.00167623649 -143.4528652484944,0.00167623649 -49.7871794857168,193.2940311364834 249.4988299792303,391.1356168916281 286.9134269045419,143.4588854195532 0,-79.2310804047956 -64.2294812512523,-143.4605616560475 -143.4605616560475,-143.4605616560475 z"
           id="path3144"
           sodipodi:nodetypes="cccc" />
        <g
           id="g3146"
           style="stroke:#000000;stroke-width:2.1153054237">
          <path
             sodipodi:nodetypes="cccsc"
             id="path3148"
             d="m 429.6712810451755,387.6024654140157 c 0,0 103.1125265991956,-19.6222150896387 198.330640856896,47.8724539664082 l 9.5469235786337,20.1510585552678 c -23.6673440265323,-29.450709653779 -173.8800875722749,-64.5034497102638 -211.1689184291369,-53.4254379262731 0,0 3.1728459836659,-13.8642253364736 3.2913539936071,-14.5980745954029 z"
             style="fill:none;stroke:#000000;stroke-width:2.1153054237;stroke-linecap:butt;stroke-linejoin:miter;stroke-opacity:1" />
          <path
             style="fill:none;stroke:#000000;stroke-width:2.1153054237;stroke-linecap:butt;stroke-linejoin:miter;stroke-opacity:1"
             d="m 421.509509266724,416.5387572082041 c 0,0 126.4311893338145,-10.0638771501046 221.6493035915148,57.4307919059423 l 3.1112245640733,19.0717022438934 c -23.6673440265322,-29.450709653779 -193.0630474925292,-75.3196321926923 -230.3518783493914,-64.2416204087016 0,0 5.4728421838622,-11.5270244822048 5.5913501938034,-12.2608737411341 z"
             id="path3150"
             sodipodi:nodetypes="cccsc" />
          <path
             sodipodi:nodetypes="cccsc"
             id="path3152"
             d="m 408.9296225198065,440.8976402457611 c 0,0 133.9598205300661,4.0900809610643 237.7910822572948,67.0766999252871 l -3.0835396689572,16.4395611659208 C 618.9228612115175,496.3591381766502 441.2106141266448,445.009625470873 403.223810023053,449.1079047875649 c 0,0 5.5873044868122,-7.4764152828745 5.7058124967535,-8.2102645418038 z"
             style="fill:none;stroke:#000000;stroke-width:2.1153054237;stroke-linecap:butt;stroke-linejoin:miter;stroke-opacity:1" />
          <path
             style="fill:none;stroke:#000000;stroke-width:2.1153054237;stroke-linecap:butt;stroke-linejoin:miter;stroke-opacity:1"
             d="m 390.6155128056111,463.7978106230906 c 0,0 135.8083120092712,49.7836478262151 234.2464620468458,110.8382453225132 -6.7658583721773,10.3108528022791 -5.9927472049469,9.8922855422453 -15.4997842831432,20.720662583762 -18.0871439857781,-28.2958176021745 -188.3170913251202,-113.8033622824574 -227.1349909357873,-123.8192743064575 0,0 8.2698051621435,-7.0057843408883 8.3883131720847,-7.7396335998176 z"
             id="path3154"
             sodipodi:nodetypes="cccsc" />
          <path
             sodipodi:nodetypes="cccsc"
             id="path3156"
             d="m 376.8940345034289,476.0886904928412 c 0,0 124.2284238011213,73.8027431331727 216.8705094349223,132.2813120055715 -12.0437485603569,6.5706816983768 -27.015929020127,11.6244399233866 -45.3136390110742,14.1074441522968 -64.1162173082852,-40.334558973909 -158.3437232636126,-121.5639856931227 -178.1364287276435,-141.5098355105203 0,0 6.4610502938545,-4.1450713884189 6.5795583037955,-4.8789206473481 z"
             style="fill:none;stroke:#000000;stroke-width:2.1153054237;stroke-linecap:butt;stroke-linejoin:miter;stroke-opacity:1" />
          <path
             sodipodi:nodetypes="cccsc"
             id="path3158"
             d="m 399.3474960948485,454.0622060804548 c 0,0 206.8152461558515,44.7286172646407 241.7172545743962,80.7869397392915 0,0 -5.7046600101171,17.6338949076569 -5.7046600101171,17.6338949076569 -14.8121645874221,-19.6272800628235 -230.2891667209279,-92.8862472983823 -240.5624061365689,-93.1270226860045 0,0 4.4313035623488,-4.5599627020147 4.5498115722898,-5.293811960944 z"
             style="fill:none;stroke:#000000;stroke-width:2.1153054237;stroke-linecap:butt;stroke-linejoin:miter;stroke-opacity:1" />
        </g>
      </g>
      <g
         id="g3160">
        <path
           style="fill:#ff0000;fill-opacity:1;stroke:none"
           d="m 411.32858968211,316.7277069374341 c -0.6556366297166,-1.2678614366408 -0.5699748943776,-1.4372770512774 6.0441945580847,-11.9537729651189 31.9366708829902,-50.7791448732294 55.3249435699119,-82.1164373628506 80.6034398745914,-107.9982949075203 39.3547869262638,-40.2941289169104 83.6366573015072,-65.83319187977 137.5865164670146,-79.3514518947707 3.6316700722598,-0.9099905186944 8.8571765398691,-2.3483484713513 11.6122365946867,-3.1963510059042 11.5624354862872,-3.5588968671772 18.9345068436902,-4.8743396116987 27.3229096345575,-4.8753900356517 8.5695180685018,-0.00107310382 13.5613995117925,1.3882730128627 18.1557826226607,5.053138053981 1.1775495081091,0.9393121823567 1.5551876251742,1.4779209557592 1.1384545681069,1.6237280899155 -0.3429702506005,0.1199989021578 -3.4924877854487,0.7549313609071 -6.9989278552166,1.4109610194429 -85.0056688934925,15.9039478297692 -170.4692817678548,70.5194088677988 -238.6838419511665,152.530739481547 -12.2564785154012,14.7354187872165 -22.7064834809693,28.6319723096842 -30.9755165222081,41.1916477222028 -2.4642758396778,3.7429412264906 -4.6289304710196,6.8156498421857 -4.810343625204,6.8282413682113 -0.1814131541845,0.012591526026 -0.6291201188428,-0.5558461908249 -0.9949043659074,-1.2631949263347 z"
           id="path3162" />
        <path
           style="fill:#ff8000;fill-opacity:1;stroke:none"
           d="m 414.3861453702663,321.7012104475325 c -0.8737668939551,-1.5231513738874 -0.8890607529351,-1.7181466940063 -0.2177781116032,-2.7766512455954 16.3243209136136,-25.7408234992843 40.3068465141202,-55.4763949568539 64.9579660324643,-80.5404014936576 63.4297279869277,-64.492126441113 134.4808508349926,-105.1142998614482 208.7832554751728,-119.3679884455983 4.0889822161389,-0.7844036733026 7.5779494273499,-1.2599397013605 7.753260469358,-1.0567467290175 0.4937811122853,0.5723133622554 4.6769199571656,12.0206631624271 4.4684361259021,12.2291469936901 -0.1015883113358,0.1015883113361 -4.4762090840253,1.6419897835084 -9.7213794948649,3.423114382605 -69.7780600603769,23.6948296272574 -126.182225448768,54.6669428684054 -179.1664041221322,98.3821340014378 -21.7322939233761,17.9304729526217 -35.0739424733333,30.3607411030068 -67.8817513933185,63.2446859304685 l -28.0358415095885,28.100903283156 -0.9397634713899,-1.6381966774886 z"
           id="path3164" />
        <path
           style="fill:#ffff00;fill-opacity:1;stroke:none"
           d="m 418.1387120629152,329.1877697628671 -1.730668890881,-3.8840517280445 4.7858131726168,-5.1249521822239 c 9.4194732997416,-10.0869692363096 46.2962309835124,-46.8171318938504 56.3513901839579,-56.127378257721 25.2664367966401,-23.3946322106426 45.8484407828856,-40.3499238669336 68.1642773141203,-56.1531910679622 42.6143119619627,-30.1779123350493 89.170788302621,-53.4083047309739 146.2175402247182,-72.9585033397548 4.5768473913524,-1.5685078026039 8.4703620142769,-2.70185184693 8.6522547176099,-2.5185423207246 0.9987680573346,1.00654779452 -0.7193935265368,19.4234180358174 -2.1673671136806,23.2318771835034 -0.2905352247003,0.7641655511261 -1.3432090563144,1.2775251853686 -4.631232023083,2.258522541419 -5.6426125146678,1.6835003934131 -24.0194435915494,8.1864349870389 -32.1593924365351,11.3801136175553 -74.0253734390784,29.0435797288839 -147.7641991602328,76.1669535447013 -214.131281281163,136.84227155488 -2.8802900573097,2.6332710374456 -10.2732401550798,9.7715425686384 -16.4287779950448,15.862825624873 l -11.1918869817547,11.0750601022447 -1.7306688908809,-3.8840517280443 z"
           id="path3166" />
        <path
           style="fill:#80ff00;fill-opacity:1;stroke:none"
           d="m 422.9609766612422,340.3820561430077 c -1.0356921908954,-2.702094802567 -1.883076710719,-5.0737490584035 -1.883076710719,-5.2703427907475 0,-1.320561651635 22.2854138095081,-23.0776981253569 36.7902421638689,-35.9181268296245 72.7325222112425,-64.3866127277706 154.5330855482162,-113.0358292172402 232.5543755484964,-138.3069712494079 3.7493468688455,-1.2144156710317 6.8721339346993,-2.152888865077 6.9395268130086,-2.0854959867675 0.2736615504317,0.273661550432 -9.0187876173027,27.8421563014736 -9.5448695062455,28.3173660821281 -0.3127283476972,0.2824875226408 -3.1301197740529,1.3915368334149 -6.2608698363456,2.4645540239427 -3.1307500622934,1.0730171905277 -11.635005686049,4.1617084192288 -18.8983458305694,6.8637582860023 C 576.2020993219117,228.609417120118 512.04530129374,268.2387341389161 432.1824586629057,338.8103033496153 l -7.3384052909442,6.4846524344236 -1.8830767107191,-4.9128996410312 0,0 z"
           id="path3168" />
        <path
           style="fill:#00ff00;fill-opacity:1;stroke:none"
           d="m 428.8031452286625,361.8442964195547 c -0.00893518174,-0.6887650137045 -0.7926338023714,-4.270647787467 -1.7415524902876,-7.9597394972499 l -1.7253067053022,-6.7074394723326 9.8245799238443,-8.5655263902771 c 34.8436768868368,-30.378340470735 60.2644934927835,-50.3395580895912 88.6056360368183,-69.575907438566 40.1787435274997,-27.2710369984891 84.056591770689,-49.8668120738743 133.1991844684685,-68.5935827069967 11.2053229781816,-4.270013073444 29.7352780789736,-10.8623152833129 29.9444262870494,-10.6531670752366 0.1741527191308,0.1741527191302 -6.6280332536594,15.61634388041 -9.1423342131019,20.754750479296 l -1.4483644161362,2.9599818770771 -10.9291638538226,3.6866080747834 c -21.892020532389,7.3845813593322 -37.9905261345523,14.2247529985038 -62.3228283362156,26.4806469242126 -54.0761931675862,27.2375413503933 -120.0659192640737,72.4733767793495 -171.0374147885539,117.2458321202364 -1.3649111920167,1.1989137214838 -2.6456725811366,2.1798431299705 -2.8461364202664,2.1798431299705 -0.2004638391298,0 -0.3717903107521,-0.5635350112129 -0.380725492494,-1.2523000249172 z"
           id="path3170" />
        <path
           style="fill:#00ff80;fill-opacity:1;stroke:none"
           d="m 430.4946820676907,373.3222529182461 -0.7940785821933,-7.9244200188983 1.7836968095128,-1.6114629091956 c 4.6609237821487,-4.2108646253458 21.5224542744226,-18.2814623511546 30.4368378956576,-25.3989103937918 61.5931802512693,-49.1774057350312 125.3500024963268,-88.3850456456236 179.5615661452859,-110.4224611469272 13.005693768462,-5.2869140487117 32.6521052867449,-12.2439124214682 33.1553602729988,-11.7406574352143 0.1896011529147,0.1896011529148 -10.5862120858523,20.9782036601687 -13.0310390184939,25.1393639078125 l -1.2772618152087,2.1739334675676 -13.4081207080211,6.2777258531627 c -36.3676641939943,17.0274590079728 -70.4390018092122,35.0433296963596 -99.3990195541264,52.5591305825266 -26.5738258625322,16.0725675892766 -59.4639234090461,38.2896957827811 -104.8140867685551,70.8014927267643 -5.7605801146192,4.1297935242559 -10.6866306918992,7.6351587230972 -10.9467790606221,7.7897004418695 -0.30847635624,0.1832510675658 -0.7491982301759,-2.4753345659163 -1.2670756162351,-7.643435075676 z"
           id="path3172" />
        <path
           style="fill:#00ffff;fill-opacity:1;stroke:none"
           d="m 431.096300149861,384.8069983176195 c 0,-0.8731566442097 3.1323303525508,-3.2961816010156 17.8737367192731,-13.8262907381108 65.2118261419315,-46.5822343690331 96.6368612673776,-66.8113085839833 140.6559779445472,-90.5437402140769 18.3260531380649,-9.8802937446079 68.3718583790216,-34.4038713887151 68.9759517439104,-33.7997780238266 0.090872116739,0.090872116739 -1.454360607336,2.9649327411189 -3.4338504979452,6.3868013875102 l -3.5990725283806,6.2215793570751 -0.5503521540137,5.3627213435821 c -0.3026936847076,2.9494967389701 -0.7790540588844,5.5867298078674 -1.0585786092829,5.8605179308828 -0.2795245503977,0.2737881230154 -5.22142836723,2.6685844244477 -10.9820084818492,5.3217695587387 -61.4499013418364,28.3023517596856 -137.8286909757034,69.4272983088995 -198.3706396481346,106.8095212240125 -4.5677990175455,2.8204325240538 -5.5765386995333,3.2655876631966 -7.3999546926927,3.2655876631966 -1.90595180306,0 -2.1112097954317,-0.1029288891724 -2.1112097954317,-1.0586894889837 z"
           id="path3174" />
        <path
           style="fill:#0080ff;fill-opacity:1;stroke:none"
           d="m 439.5436330452117,385.4860056627671 c 1.2970627552228,-1.1383658564527 24.9774813690161,-15.3441705376087 43.0108135830662,-25.8020445881288 35.6180395313283,-20.6555819481256 67.2458163759548,-37.8402020845265 103.1439838704548,-56.0421995790701 24.625374878296,-12.4861808588311 63.7212498304126,-31.1784223966074 64.1438868593451,-30.6680187568421 0.084227509506,0.1017185539299 -0.4216638795997,6.0252147597137 -1.1242030869021,13.1633249017418 -0.7025392073017,7.1381101420284 -1.2859170010289,13.5006195921247 -1.2963950971715,14.1389098891034 -0.017572353428,1.0704485371913 -1.2826844154824,1.7746070904857 -16.2989514078197,9.071960016658 -32.646246135404,15.8648737323535 -58.6669951971104,27.9569199768239 -82.0825743604833,38.1444163147797 -19.2787396525727,8.3876673833547 -29.1504986194916,12.4745096922251 -84.3315902941874,34.912715387759 l -8.51051605829,3.4606185578352 -8.5435333719464,0 c -4.6989433545705,0 -8.3488576408001,-0.1708569647262 -8.1109206360658,-0.3796821438361 z"
           id="path3176" />
        <path
           style="fill:#0000ff;fill-opacity:1;stroke:none"
           d="m 461.6448310607205,385.6796592527691 c 0.1043583354098,-0.1023157046089 10.1284508075881,-4.2220597446152 22.2757610492852,-9.1549867555697 64.3660748162292,-26.1385560039619 92.9081204377239,-38.7760253328628 147.014722467953,-65.0932337059433 8.6003859196504,-4.1831891089722 15.7290582285578,-7.5138054598468 15.8414940197941,-7.4013696686103 0.387946068514,0.3879460685139 -1.2660122325387,10.0965628713698 -2.6042529697537,15.2867784665083 -3.7406114526311,14.5075391571258 -11.3299665776337,23.6097341498619 -26.3697063086612,31.62616648836 -15.7172072078265,8.3775338127534 -47.6378363196263,17.8161108592803 -106.5134186567432,31.4948400596843 l -14.7539804673541,3.4278336694048 -17.5401807812689,0 c -9.6470994296981,0 -17.4547966886611,-0.083712849225 -17.3504383532512,-0.1860285538341 z"
           id="path3178" />
        <path
           style="fill:#8000ff;fill-opacity:1;stroke:none"
           d="m 601.6073442000039,445.7726951481793 c -36.9451627332401,-23.4448968081215 -79.4877270905919,-36.7940595463709 -125.5926048165498,-39.4089107166629 -14.3370457922629,-0.8131296040142 -29.3770823162237,-0.404191878145 -41.2753846156521,1.1222753277368 -2.6298300523262,0.3373884131445 -4.8434157563171,0.5524285130071 -4.9190793422021,0.4778668885836 -0.075663585885,-0.074561624423 0.1804886919391,-3.0190980770415 0.5692272840533,-6.5434143391511 0.3887385921143,-3.5243162621096 0.7067974402078,-8.0684767379377 0.7067974402078,-10.098134390729 l 0,-3.6902866414388 39.0489916860552,0.1840952735654 c 41.7344781393523,0.1967559170783 40.9350179543237,0.1572395098214 53.0246399123611,2.6209476152347 30.4264570456833,6.2005171958763 58.0751377242016,23.4865001287619 77.355747942441,48.362891316277 3.4674967558982,4.4738628479488 7.4477121993833,10.3265874840459 7.1947496399397,10.5795500434899 -0.09165626285,0.09165626285 -2.842544571644,-1.5314399067577 -6.113085130654,-3.6068803769056 l 0,0 z"
           id="path3180" />
        <path
           style="fill:#ff00ff;fill-opacity:1;stroke:none"
           d="m 616.0238820626509,466.7472438679529 c -0.298433424579,-0.3595902782709 -2.2231617820745,-1.7698137975382 -4.2771741277681,-3.1338300428162 -27.5993921632601,-18.3280394343355 -102.0943307848397,-39.0396815805076 -155.2539411435258,-43.1648663687343 -7.7748656049143,-0.6033294282538 -23.1547672971549,-0.3383219736698 -26.9519965394739,0.4644034885143 -1.231231451363,0.2602794755807 -2.3253043698686,0.3865336791203 -2.4312731522344,0.2805648967544 -0.1805971330237,-0.1805971330237 2.0692484411043,-10.7929760062428 2.3470208309315,-11.07074839607 0.3462317709134,-0.3462317709135 10.8905115313611,-1.5221402759086 17.3426835523642,-1.9340732180837 25.2768054229244,-1.6137742132044 54.4244771515375,1.1311598462333 79.9129288663338,7.5256686804005 28.9754845829142,7.2693309979344 54.2968846525199,18.4455065469415 78.759037867017,34.7620917821696 l 5.2005192457988,3.4688162892885 3.1248624923729,6.550424618421 c 2.924028845159,6.1294314802824 3.5243379432907,7.8143446956004 2.2273321081841,6.2515482701559 z"
           id="path3182" />
        <path
           style="fill:#ff0080;fill-opacity:1;stroke:none"
           d="M 617.9919633843361,482.8887959335798 C 599.3738838680242,470.7193102149786 577.5485203795033,460.4398656533285 553.8217025917488,452.6654899771423 517.2860171494404,440.6941355900376 473.4011124064964,434.1017945313646 433.94232128198,434.6573440753614 c -6.324178534313,0.089039587903 -11.4984545463573,0.1298848530482 -11.4983911378764,0.090767255877 8.318805084e-4,-0.5131989621064 3.6794819049885,-10.8419533040288 3.9519262528079,-11.0960475095521 1.5955595144859,-1.4880926341231 19.831080111174,-2.3086325870761 30.8350472775221,-1.3874782520328 36.9122996519568,3.0899696742826 85.1308221449947,14.0009155356038 120.9537266747956,27.3695562460312 18.5521813668122,6.923432098625 32.2129321211538,14.0918398282325 38.7656468761196,20.3420710696808 2.5934718924058,2.4737531926668 2.7522039599751,2.7618197141459 4.4451895831835,8.0671178807873 1.733048257208,5.4308421853243 2.5422013942997,8.4708592768801 2.2496832922817,8.4521400778429 -0.082515367519,-0.00528043078 -2.626449389934,-1.6282841404626 -5.653186716478,-3.6066749104162 l 0,0 z"
           id="path3184" />
        <path
           style="fill:#ff0000;fill-opacity:1;stroke:none"
           d="m 623.8164808031965,501.116774290931 c -27.0894426498454,-21.7407133322911 -133.0084697297647,-53.4210422785019 -187.1766113044039,-55.9844324541076 -6.968025215611,-0.3297467267998 -16.5714563622892,-0.013551568289 -18.1804150549145,0.598594307835 -0.8575551466236,0.3262662049439 -0.7426519741562,-0.082814817453 1.296586986656,-4.6161399962897 l 1.8795010077514,-4.1782201133973 3.4780788308705,-0.3271237722546 c 5.1347618251097,-0.4829397893315 32.2477354303588,0.1132749951591 41.9578432328725,0.9226537385754 59.6141625998527,4.9690937522228 111.0995760789788,21.1870361137196 150.9590757309308,47.5522176808711 3.2559800647847,2.1536774504612 6.0615770482301,4.0250207371748 6.2346599632119,4.1585406371413 0.3294223110163,0.2541234876836 2.7208295182395,13.7322031808478 2.4793429821799,13.973689716907 -0.076325087984,0.076325087984 -1.3939531568037,-0.8685757973919 -2.9280623751547,-2.0997797452805 z"
           id="path3186" />
        <path
           style="fill:#ff8000;fill-opacity:1;stroke:none"
           d="m 621.2182130236576,514.9111193607733 c -7.8553052245619,-4.5562134225273 -26.6871198174086,-13.8304613732776 -36.8859280066531,-18.1654954460502 -41.0519314460397,-17.4492468403705 -92.0071268961789,-30.4664513208845 -142.5345119269418,-36.4123985963082 -10.3671523864604,-1.2199828162223 -25.0892526560426,-2.5172088074767 -28.567574742556,-2.5172088074767 -1.1938842279766,0 -2.1706985963212,-0.1228040368364 -2.1706985963212,-0.2728978596364 0,-0.1500938228001 0.6909078390888,-1.43085521192 1.5353507535306,-2.8461364202664 0.8444429144418,-1.4152812083465 2.0715189215181,-3.527688156251 2.7268355712803,-4.69423766201 1.1720266554874,-2.0863610228597 1.2417726452092,-2.1287824318624 4.2707675438129,-2.5975970439951 13.3587584453159,-2.0676103356936 36.7897134831644,0.3314512610665 68.5575003888827,7.0195033060818 59.2618437604634,12.4763584107962 120.5400285718924,34.8820167774217 136.8045687677762,50.0210056847609 l 2.5930715629545,2.4136238193465 0.1918012429528,5.761259599494 c 0.1054906836239,3.1686927797217 0.013371732261,5.7529349578674 -0.2047087808055,5.742760395879 -0.2180805130671,-0.010174561988 -3.0604937131277,-1.5636559984066 -6.3164737779124,-3.4521809698192 z"
           id="path3188" />
        <path
           style="fill:#ffff00;fill-opacity:1;stroke:none"
           d="m 623.733842191682,532.2826852234353 c -2.9536484182601,-3.144014666307 -14.6216390819441,-9.9035737516167 -26.3325558294628,-15.2551087952497 -50.2526300586278,-22.9639332762291 -147.4616330118759,-50.2620206247574 -184.3913667564332,-51.7805088326284 l -6.9295257766305,-0.2849303829465 1.9436514420834,-2.7761421531618 1.9436514420833,-2.7761421531617 2.2535833710914,0.1020126524805 c 15.7852239378181,0.7145475887658 41.0603990509772,3.705912756227 60.9978390853902,7.2192105618863 51.2068368139724,9.023468765436 95.9436733440069,23.292899941984 133.9021605048628,42.7099413350886 14.063787828596,7.194099945408 20.2160983251863,10.8122371098449 20.2361579104254,11.9007639555414 0.025256810249,1.3705525645155 -1.8750550529984,11.332840710543 -2.2379069325383,11.7321131005507 -0.1737248104815,0.1911620807166 -0.7972846178742,-0.1648820990632 -1.3856884608717,-0.7912092883995 l 0,0 z"
           id="path3190" />
        <path
           style="fill:#80ff00;fill-opacity:1;stroke:none"
           d="M 618.9604196131432,540.1653155385254 C 594.8603492582135,521.9490515299036 520.503604001207,497.389127931633 416.5576680725422,473.3119843883363 c -7.6205576350502,-1.76516049829 -13.9452656467589,-3.2990890344677 -14.0549066926861,-3.408730080395 -0.1096410459272,-0.1096410459272 0.2504047027676,-0.7736740272483 0.8001016637662,-1.4756288473802 1.3017557757939,-1.6623227092124 3.0022315124016,-1.8902087561971 10.6044296047128,-1.4211326225482 41.8681300330696,2.5833765866856 145.0159702580525,32.5783103440988 190.5845456019451,55.4211392894724 10.6827514644575,5.3550997047194 20.1417384776971,11.8142430431873 20.1417384776971,13.7539438135699 0,1.3283985349956 -1.4268403092278,6.7967787728667 -1.7630441714125,6.7568850158583 -0.1573957281488,-0.018676486618 -1.9169465526885,-1.2665919248924 -3.9101129434216,-2.773145418388 l 0,0 z"
           id="path3192" />
        <path
           style="fill:#00ff00;fill-opacity:1;stroke:none"
           d="m 614.159794701397,556.8554838755236 c -10.7694472976515,-7.6098598731187 -40.8356016228294,-20.709688211651 -89.027147225934,-38.7891425526401 -42.5060405977811,-15.9464904183175 -96.7358691816448,-34.6021605264198 -120.165698910256,-41.3383500505174 l -6.7756239268422,-1.9480246951807 1.538732913552,-1.615851715817 1.538732913552,-1.6158517158169 16.1660548671132,3.7821111804228 c 71.2177258295991,16.6616629300424 127.4341011402544,32.9943585307694 164.1651487209671,47.6953447726009 17.2653503847181,6.910167152418 34.6864615111914,16.210656702597 39.2884371424517,20.9746494602738 l 1.4917454813143,1.5442638637636 -2.1040766396411,6.5692294112833 c -1.1572421518026,3.6130761762064 -2.2383712629124,6.7010213687693 -2.4025091357994,6.862100427918 -0.1641378728868,0.1610790591485 -1.8353461631018,-0.7931362146819 -3.7137962004776,-2.1204783862903 z"
           id="path3194" />
        <path
           style="fill:#00ff80;fill-opacity:1;stroke:none"
           d="m 601.6367944522246,576.6142874829852 c -26.6516582233904,-16.3152503203369 -70.7222862784057,-39.053279450838 -111.1131658472008,-57.3283048896407 -26.6026661032224,-12.0364895482977 -61.9413936018695,-26.8488665601533 -85.8394744352352,-35.979978562695 -5.3848901071441,-2.0574888432491 -9.9457516287637,-3.8816007164531 -10.1352478258216,-4.0535819404533 -0.1894961970576,-0.1719812240005 0.254607859959,-0.8867118158122 0.9868979044813,-1.588290204026 l 1.3314364445862,-1.2755970694799 4.4776840224303,1.1540319001448 c 6.0888102036871,1.5692668740766 32.565253342304,10.059387626747 51.1714633511874,16.4089980163825 43.078912295738,14.7012373264955 89.4879234881214,31.926459014606 118.6098239603157,44.0233579559561 26.7722966641267,11.1209008314207 45.7658736378841,21.0408916968471 45.7658736378841,23.9026618874022 0,1.6832515263932 -8.0947198916415,18.4625430789289 -8.8758273245037,18.3984247066523 -0.2527250736833,-0.020745315787 -3.1234838233394,-1.6685201258963 -6.3794638881244,-3.6617218002438 z"
           id="path3196" />
        <path
           style="fill:#00ffff;fill-opacity:1;stroke:none"
           d="M 590.2444340083839,595.1087075270636 C 575.2369166829793,580.0421879317542 528.3955031341411,551.9767719008331 468.6653008973777,522.2635755610621 434.2195713660556,505.1283125566977 405.9167331113621,492.5471138452302 391.0371400582258,487.7562477681976 l -4.3215977850219,-1.3914490909061 3.0924152382,-2.8306400980842 3.0924152382,-2.8306400980841 8.2826453031162,3.145958673549 c 50.7538776306805,19.2776094719896 115.4020818837877,48.312254126802 158.5586482931829,71.2114754512872 19.6119204943462,10.4062427890575 47.1320191196116,26.2686098738104 47.1320191196116,27.1665228711972 0,1.1058483977996 -7.8581861413073,11.9439798673369 -11.6122365946868,16.0157757280674 l -0.9107636544852,0.9878513153971 -4.1062512079587,-4.1223949935575 0,0 z"
           id="path3198" />
        <path
           style="fill:#0080ff;fill-opacity:1;stroke:none"
           d="M 563.3847209638438,601.6242280966265 C 530.3059761466173,580.8053699707395 463.1696171839263,539.8067369939832 410.2360525661745,508.0998525789683 l -28.8294295604324,-17.2686535929397 1.7142412738125,-1.4955548182278 c 1.9957027358905,-1.7411101272653 2.0503862006222,-1.7369633328926 9.0402896410618,0.685549505599 16.8674167899543,5.845793732922 41.8024107350053,17.0133920726365 76.0487651495187,34.0598463866746 58.282195490946,29.0105268062405 104.17306412931,56.3435066935025 119.8216181047397,71.3667440798474 5.3275452167178,5.1146563831335 5.2835817210214,4.9844356405248 2.6066829746701,7.721046457457 -2.4508086108292,2.5054774162705 -10.2189391360107,8.5887779875936 -10.8878779052103,8.5264058921974 -0.2349915298494,-0.021910696153 -7.5995211060698,-4.5538644729805 -16.3656212804906,-10.0710083929497 z"
           id="path3200" />
        <path
           style="fill:#0000ff;fill-opacity:1;stroke:none"
           d="m 526.9541747844339,617.6068373067928 c -32.5858044508621,-21.8778470054145 -74.5317582395403,-54.478902288763 -117.9438932558403,-91.6678496271278 -16.0605399977583,-13.7582400860515 -33.6119003864578,-29.7233843331405 -33.3684854622935,-30.3527858760967 0.06908664047,-0.1786383405156 1.0773537652859,-1.0475716308422 2.2405936107022,-1.9309628673923 l 2.1149815371204,-1.6061658846367 34.3155646422897,20.5944600602285 c 34.3850031138657,20.6361335062127 78.7706809376495,47.5715323865152 106.4935842602458,64.6255123472688 24.3813342456017,14.9983852990614 55.7410290837231,34.5509439011729 56.4119893530634,35.1724955673559 0.5233198682605,0.4847833037626 0.3331902438581,0.7317469795962 -1.143221178512,1.4849558842982 -9.0300988782394,4.6068126962268 -25.5259681335556,9.5458961608517 -35.9150405167395,10.7534425741396 l -2.2769091362135,0.2646505250333 -10.9291638538227,-7.3377527030707 z"
           id="path3202" />
        <path
           style="fill:#8000ff;fill-opacity:1;stroke:none"
           d="m 521.0342110302797,624.2426870757924 c -48.8506020305771,-6.393909107505 -102.0388441271261,-46.2321787979048 -133.4315493887941,-99.9409237874313 -4.947416697085,-8.464372201306 -13.3712859758879,-25.7109801890658 -12.8250011822641,-26.2572649826897 0.119842538787,-0.119842538787 2.2358586604084,1.7045909454137 4.7022580480474,4.0542966315572 13.8374027429057,13.1827083924081 47.4477447772726,41.8230094561846 73.9300911774808,62.9978732983571 27.8960113068038,22.3052078631761 50.2091261141821,38.94641842151 71.0627634531743,52.9988941342383 l 10.158732485438,6.8455847391574 -4.521738160328,-0.051212193726 c -2.4869559881804,-0.028166706549 -6.5709563829198,-0.3194282343077 -9.0755564327543,-0.6472478394639 z"
           id="path3204" />
      </g>
    </g>
    <g
       id="g3085">
      <g
         style="stroke:#000000;stroke-width:2.1153054237"
         transform="matrix(0.922681720727841,0,0,0.922681720727841,32.0206277461311,51.61295409059449)"
         id="g2996">
        <path
           style="fill:#ffffff;stroke:#000000;stroke-width:2.1153054237"
           d="M 661.0815932271982,68.60753325275311 C 499.6818034623746,105.5225578709089 447.6598739324909,230.9803065209733 360.0000088986853,363.2584186689591 c 35.1526268687164,28.946591364582 104.8539819822044,8.9155675149783 143.4528652484943,-0.00167623649 C 681.8610565197742,322.0402844718251 661.1921143123737,321.3601168356648 672.3640088433462,225.4518636742259 709.4494603984835,162.8970338569695 777.1922987674995,28.78922939290604 661.0815932271982,68.607533252753 z"
           id="path2998"
           sodipodi:nodetypes="ccscc" />
        <g
           style="stroke:#000000;stroke-width:2.1153054237"
           id="g3000">
          <path
             sodipodi:nodetypes="ccccc"
             id="path3002"
             d="m 420.2151172527931,306.8268115565526 c 0,0 124.821212021808,-137.8253161870765 302.7155480062314,-192.4636922857152 l -11.0599977906891,33.4122614248597 C 591.4021568962466,188.6888820163672 519.0063666235795,236.4231763000405 425.1273040521625,320.0842713024629 l -4.9121867993694,-13.2574597459103 z"
             style="fill:none;stroke:#000000;stroke-width:2.1153054237;stroke-linecap:butt;stroke-linejoin:miter;stroke-opacity:1" />
          <path
             style="fill:none;stroke:#000000;stroke-width:2.1153054237;stroke-linecap:butt;stroke-linejoin:miter;stroke-opacity:1"
             d="m 429.8230579232717,339.785086348561 c 0,0 135.7474190072576,-123.6108853455666 269.2052612620361,-163.4370968527057 l -16.9710899387028,32.2822251307704 c -109.5203889286712,50.0600550132348 -159.0754295004773,85.160391987234 -250.3784634486743,150.72596786453 l -1.8557078746589,-19.5710961425947 z"
             id="path3004"
             sodipodi:nodetypes="ccccc" />
          <path
             sodipodi:nodetypes="ccccc"
             id="path3006"
             d="m 431.6873656161051,366.7849131765004 c 0,0 109.6168460469843,-70.1111305794224 239.3352431028694,-128.8957870324753 l -3.2393899632723,33.5164385922924 C 559.5508441389805,324.6856555294268 534.8081513511031,332.450667794796 431.2689814393834,374.8319860569968 l 0.4183841767217,-8.0470728804964 z"
             style="fill:none;stroke:#000000;stroke-width:2.1153054237;stroke-linecap:butt;stroke-linejoin:miter;stroke-opacity:1" />
          <path
             style="fill:none;stroke:#000000;stroke-width:2.1153054237;stroke-linecap:butt;stroke-linejoin:miter;stroke-opacity:1"
             d="m 412.2239727188288,290.9669958180033 c 0,0 112.3231698288068,-188.5056868927255 307.6056990245512,-220.60381253224386 l 5.8307217391357,15.44780309343632 C 575.5675537355831,134.4525735715641 504.603195566277,203.7028511821795 415.2321830866843,296.3800463682505 l -3.0082103678555,-5.4130505502472 z"
             id="path3008"
             sodipodi:nodetypes="ccccc" />
        </g>
      </g>
      <g
         style="stroke:#000000;stroke-width:2.1153054237"
         id="g2973"
         transform="matrix(0.922681720727841,0,0,0.922681720727841,32.02062774613116,51.61295409059835)">
        <path
           sodipodi:nodetypes="cccc"
           id="path3069"
           d="m 503.4528741471796,363.2567424324648 c 0,0 -143.4528652484944,0.00167623649 -143.4528652484944,0.00167623649 -49.7871794857168,193.2940311364834 249.4988299792303,391.1356168916281 286.9134269045419,143.4588854195532 0,-79.2310804047956 -64.2294812512523,-143.4605616560475 -143.4605616560475,-143.4605616560475 z"
           style="fill:#ffffff;stroke:#000000;stroke-width:2.1153054237" />
        <g
           style="stroke:#000000;stroke-width:2.1153054237"
           id="g2965">
          <path
             style="fill:none;stroke:#000000;stroke-width:2.1153054237;stroke-linecap:butt;stroke-linejoin:miter;stroke-opacity:1"
             d="m 429.6712810451755,387.6024654140157 c 0,0 103.1125265991956,-19.6222150896387 198.330640856896,47.8724539664082 l 9.5469235786337,20.1510585552678 c -23.6673440265323,-29.450709653779 -173.8800875722749,-64.5034497102638 -211.1689184291369,-53.4254379262731 0,0 3.1728459836659,-13.8642253364736 3.2913539936071,-14.5980745954029 z"
             id="path2947"
             sodipodi:nodetypes="cccsc" />
          <path
             sodipodi:nodetypes="cccsc"
             id="path2949"
             d="m 421.509509266724,416.5387572082041 c 0,0 126.4311893338145,-10.0638771501046 221.6493035915148,57.4307919059423 l 3.1112245640733,19.0717022438934 c -23.6673440265322,-29.450709653779 -193.0630474925292,-75.3196321926923 -230.3518783493914,-64.2416204087016 0,0 5.4728421838622,-11.5270244822048 5.5913501938034,-12.2608737411341 z"
             style="fill:none;stroke:#000000;stroke-width:2.1153054237;stroke-linecap:butt;stroke-linejoin:miter;stroke-opacity:1" />
          <path
             style="fill:none;stroke:#000000;stroke-width:2.1153054237;stroke-linecap:butt;stroke-linejoin:miter;stroke-opacity:1"
             d="m 408.9296225198065,440.8976402457611 c 0,0 133.9598205300661,4.0900809610643 237.7910822572948,67.0766999252871 l -3.0835396689572,16.4395611659208 C 618.9228612115175,496.3591381766502 441.2106141266448,445.009625470873 403.223810023053,449.1079047875649 c 0,0 5.5873044868122,-7.4764152828745 5.7058124967535,-8.2102645418038 z"
             id="path2951"
             sodipodi:nodetypes="cccsc" />
          <path
             sodipodi:nodetypes="cccsc"
             id="path2953"
             d="m 390.6155128056111,463.7978106230906 c 0,0 135.8083120092712,49.7836478262151 234.2464620468458,110.8382453225132 -6.7658583721773,10.3108528022791 -5.9927472049469,9.8922855422453 -15.4997842831432,20.720662583762 -18.0871439857781,-28.2958176021745 -188.3170913251202,-113.8033622824574 -227.1349909357873,-123.8192743064575 0,0 8.2698051621435,-7.0057843408883 8.3883131720847,-7.7396335998176 z"
             style="fill:none;stroke:#000000;stroke-width:2.1153054237;stroke-linecap:butt;stroke-linejoin:miter;stroke-opacity:1" />
          <path
             style="fill:none;stroke:#000000;stroke-width:2.1153054237;stroke-linecap:butt;stroke-linejoin:miter;stroke-opacity:1"
             d="m 376.8940345034289,476.0886904928412 c 0,0 124.2284238011213,73.8027431331727 216.8705094349223,132.2813120055715 -12.0437485603569,6.5706816983768 -27.015929020127,11.6244399233866 -45.3136390110742,14.1074441522968 -64.1162173082852,-40.334558973909 -158.3437232636126,-121.5639856931227 -178.1364287276435,-141.5098355105203 0,0 6.4610502938545,-4.1450713884189 6.5795583037955,-4.8789206473481 z"
             id="path2955"
             sodipodi:nodetypes="cccsc" />
          <path
             style="fill:none;stroke:#000000;stroke-width:2.1153054237;stroke-linecap:butt;stroke-linejoin:miter;stroke-opacity:1"
             d="m 399.3474960948485,454.0622060804548 c 0,0 206.8152461558515,44.7286172646407 241.7172545743962,80.7869397392915 0,0 -5.7046600101171,17.6338949076569 -5.7046600101171,17.6338949076569 -14.8121645874221,-19.6272800628235 -230.2891667209279,-92.8862472983823 -240.5624061365689,-93.1270226860045 0,0 4.4313035623488,-4.5599627020147 4.5498115722898,-5.293811960944 z"
             id="path2957"
             sodipodi:nodetypes="cccsc" />
        </g>
      </g>
      <g
         id="g2962">
        <path
           id="path2917"
           d="m 411.32858968211,316.7277069374341 c -0.6556366297166,-1.2678614366408 -0.5699748943776,-1.4372770512774 6.0441945580847,-11.9537729651189 31.9366708829902,-50.7791448732294 55.3249435699119,-82.1164373628506 80.6034398745914,-107.9982949075203 39.3547869262638,-40.2941289169104 83.6366573015072,-65.83319187977 137.5865164670146,-79.3514518947707 3.6316700722598,-0.9099905186944 8.8571765398691,-2.3483484713513 11.6122365946867,-3.1963510059042 11.5624354862872,-3.5588968671772 18.9345068436902,-4.8743396116987 27.3229096345575,-4.8753900356517 8.5695180685018,-0.00107310382 13.5613995117925,1.3882730128627 18.1557826226607,5.053138053981 1.1775495081091,0.9393121823567 1.5551876251742,1.4779209557592 1.1384545681069,1.6237280899155 -0.3429702506005,0.1199989021578 -3.4924877854487,0.7549313609071 -6.9989278552166,1.4109610194429 -85.0056688934925,15.9039478297692 -170.4692817678548,70.5194088677988 -238.6838419511665,152.530739481547 -12.2564785154012,14.7354187872165 -22.7064834809693,28.6319723096842 -30.9755165222081,41.1916477222028 -2.4642758396778,3.7429412264906 -4.6289304710196,6.8156498421857 -4.810343625204,6.8282413682113 -0.1814131541845,0.012591526026 -0.6291201188428,-0.5558461908249 -0.9949043659074,-1.2631949263347 z"
           style="fill:#ff0000;fill-opacity:1;stroke:none" />
        <path
           id="path2919"
           d="m 414.3861453702663,321.7012104475325 c -0.8737668939551,-1.5231513738874 -0.8890607529351,-1.7181466940063 -0.2177781116032,-2.7766512455954 16.3243209136136,-25.7408234992843 40.3068465141202,-55.4763949568539 64.9579660324643,-80.5404014936576 63.4297279869277,-64.492126441113 134.4808508349926,-105.1142998614482 208.7832554751728,-119.3679884455983 4.0889822161389,-0.7844036733026 7.5779494273499,-1.2599397013605 7.753260469358,-1.0567467290175 0.4937811122853,0.5723133622554 4.6769199571656,12.0206631624271 4.4684361259021,12.2291469936901 -0.1015883113358,0.1015883113361 -4.4762090840253,1.6419897835084 -9.7213794948649,3.423114382605 -69.7780600603769,23.6948296272574 -126.182225448768,54.6669428684054 -179.1664041221322,98.3821340014378 -21.7322939233761,17.9304729526217 -35.0739424733333,30.3607411030068 -67.8817513933185,63.2446859304685 l -28.0358415095885,28.100903283156 -0.9397634713899,-1.6381966774886 z"
           style="fill:#ff8000;fill-opacity:1;stroke:none" />
        <path
           id="path2921"
           d="m 418.1387120629152,329.1877697628671 -1.730668890881,-3.8840517280445 4.7858131726168,-5.1249521822239 c 9.4194732997416,-10.0869692363096 46.2962309835124,-46.8171318938504 56.3513901839579,-56.127378257721 25.2664367966401,-23.3946322106426 45.8484407828856,-40.3499238669336 68.1642773141203,-56.1531910679622 42.6143119619627,-30.1779123350493 89.170788302621,-53.4083047309739 146.2175402247182,-72.9585033397548 4.5768473913524,-1.5685078026039 8.4703620142769,-2.70185184693 8.6522547176099,-2.5185423207246 0.9987680573346,1.00654779452 -0.7193935265368,19.4234180358174 -2.1673671136806,23.2318771835034 -0.2905352247003,0.7641655511261 -1.3432090563144,1.2775251853686 -4.631232023083,2.258522541419 -5.6426125146678,1.6835003934131 -24.0194435915494,8.1864349870389 -32.1593924365351,11.3801136175553 -74.0253734390784,29.0435797288839 -147.7641991602328,76.1669535447013 -214.131281281163,136.84227155488 -2.8802900573097,2.6332710374456 -10.2732401550798,9.7715425686384 -16.4287779950448,15.862825624873 l -11.1918869817547,11.0750601022447 -1.7306688908809,-3.8840517280443 z"
           style="fill:#ffff00;fill-opacity:1;stroke:none" />
        <path
           id="path2923"
           d="m 422.9609766612422,340.3820561430077 c -1.0356921908954,-2.702094802567 -1.883076710719,-5.0737490584035 -1.883076710719,-5.2703427907475 0,-1.320561651635 22.2854138095081,-23.0776981253569 36.7902421638689,-35.9181268296245 72.7325222112425,-64.3866127277706 154.5330855482162,-113.0358292172402 232.5543755484964,-138.3069712494079 3.7493468688455,-1.2144156710317 6.8721339346993,-2.152888865077 6.9395268130086,-2.0854959867675 0.2736615504317,0.273661550432 -9.0187876173027,27.8421563014736 -9.5448695062455,28.3173660821281 -0.3127283476972,0.2824875226408 -3.1301197740529,1.3915368334149 -6.2608698363456,2.4645540239427 -3.1307500622934,1.0730171905277 -11.635005686049,4.1617084192288 -18.8983458305694,6.8637582860023 -86.4558599808249,32.1626194415846 -150.6126580089966,71.7919364603827 -230.4755006398311,142.3635056710819 l -7.3384052909442,6.4846524344236 -1.883076710719,-4.9128996410312 0,0 z"
           style="fill:#80ff00;fill-opacity:1;stroke:none" />
        <path
           id="path2925"
           d="m 428.8031452286625,361.8442964195547 c -0.00893518174,-0.6887650137045 -0.7926338023714,-4.270647787467 -1.7415524902876,-7.9597394972499 l -1.7253067053022,-6.7074394723326 9.8245799238443,-8.5655263902771 c 34.8436768868368,-30.378340470735 60.2644934927835,-50.3395580895912 88.6056360368183,-69.575907438566 40.1787435274997,-27.2710369984891 84.056591770689,-49.8668120738743 133.1991844684685,-68.5935827069967 11.2053229781816,-4.270013073444 29.7352780789736,-10.8623152833129 29.9444262870494,-10.6531670752366 0.1741527191308,0.1741527191302 -6.6280332536594,15.61634388041 -9.1423342131019,20.754750479296 l -1.4483644161362,2.9599818770771 -10.9291638538226,3.6866080747834 c -21.892020532389,7.3845813593322 -37.9905261345523,14.2247529985038 -62.3228283362156,26.4806469242126 -54.0761931675862,27.2375413503933 -120.0659192640737,72.4733767793495 -171.0374147885539,117.2458321202364 -1.3649111920167,1.1989137214838 -2.6456725811366,2.1798431299705 -2.8461364202664,2.1798431299705 -0.2004638391298,0 -0.3717903107521,-0.5635350112129 -0.380725492494,-1.2523000249172 z"
           style="fill:#00ff00;fill-opacity:1;stroke:none" />
        <path
           id="path2927"
           d="m 430.4946820676907,373.3222529182461 -0.7940785821933,-7.9244200188983 1.7836968095128,-1.6114629091956 c 4.6609237821487,-4.2108646253458 21.5224542744226,-18.2814623511546 30.4368378956576,-25.3989103937918 61.5931802512693,-49.1774057350312 125.3500024963268,-88.3850456456236 179.5615661452859,-110.4224611469272 13.005693768462,-5.2869140487117 32.6521052867449,-12.2439124214682 33.1553602729988,-11.7406574352143 0.1896011529147,0.1896011529148 -10.586212085852,20.9782036601687 -13.0310390184936,25.1393639078125 l -1.2772618152089,2.1739334675676 -13.4081207080211,6.2777258531627 c -36.3676641939943,17.0274590079728 -70.4390018092122,35.0433296963596 -99.3990195541264,52.5591305825266 -26.5738258625322,16.0725675892766 -59.4639234090461,38.2896957827811 -104.8140867685551,70.8014927267643 -5.7605801146192,4.1297935242559 -10.6866306918992,7.6351587230972 -10.9467790606221,7.7897004418695 -0.30847635624,0.1832510675658 -0.7491982301759,-2.4753345659163 -1.2670756162351,-7.643435075676 z"
           style="fill:#00ff80;fill-opacity:1;stroke:none" />
        <path
           id="path2929"
           d="m 431.096300149861,384.8069983176195 c 0,-0.8731566442097 3.1323303525508,-3.2961816010156 17.8737367192731,-13.8262907381108 65.2118261419315,-46.5822343690331 96.6368612673776,-66.8113085839833 140.6559779445472,-90.5437402140769 18.3260531380649,-9.8802937446079 68.3718583790216,-34.4038713887151 68.9759517439104,-33.7997780238266 0.090872116739,0.090872116739 -1.454360607336,2.9649327411189 -3.4338504979452,6.3868013875102 l -3.5990725283806,6.2215793570751 -0.5503521540137,5.3627213435821 c -0.3026936847076,2.9494967389701 -0.7790540588844,5.5867298078674 -1.0585786092829,5.8605179308828 -0.2795245503977,0.2737881230154 -5.22142836723,2.6685844244477 -10.9820084818492,5.3217695587387 -61.4499013418364,28.3023517596856 -137.8286909757034,69.4272983088995 -198.3706396481346,106.8095212240125 -4.5677990175455,2.8204325240538 -5.5765386995333,3.2655876631966 -7.3999546926927,3.2655876631966 -1.90595180306,0 -2.1112097954317,-0.1029288891724 -2.1112097954317,-1.0586894889837 z"
           style="fill:#00ffff;fill-opacity:1;stroke:none" />
        <path
           id="path2931"
           d="m 439.5436330452117,385.4860056627671 c 1.2970627552228,-1.1383658564527 24.9774813690161,-15.3441705376087 43.0108135830662,-25.8020445881288 35.6180395313283,-20.6555819481256 67.2458163759548,-37.8402020845265 103.1439838704548,-56.0421995790701 24.625374878296,-12.4861808588311 63.7212498304126,-31.1784223966074 64.1438868593451,-30.6680187568421 0.084227509506,0.1017185539299 -0.4216638795997,6.0252147597137 -1.1242030869021,13.1633249017418 -0.7025392073017,7.1381101420284 -1.2859170010289,13.5006195921247 -1.2963950971715,14.1389098891034 -0.017572353428,1.0704485371913 -1.2826844154824,1.7746070904857 -16.2989514078197,9.071960016658 -32.646246135404,15.8648737323535 -58.6669951971104,27.9569199768239 -82.0825743604833,38.1444163147797 -19.2787396525727,8.3876673833547 -29.1504986194916,12.4745096922251 -84.3315902941874,34.912715387759 l -8.51051605829,3.4606185578352 -8.5435333719464,0 c -4.6989433545705,0 -8.3488576408001,-0.1708569647262 -8.1109206360658,-0.3796821438361 z"
           style="fill:#0080ff;fill-opacity:1;stroke:none" />
        <path
           id="path2933"
           d="m 461.6448310607205,385.6796592527691 c 0.1043583354098,-0.1023157046089 10.1284508075881,-4.2220597446152 22.2757610492852,-9.1549867555697 64.3660748162292,-26.1385560039619 92.9081204377239,-38.7760253328628 147.014722467953,-65.0932337059433 8.6003859196504,-4.1831891089722 15.7290582285578,-7.5138054598468 15.8414940197941,-7.4013696686103 0.387946068514,0.3879460685139 -1.2660122325387,10.0965628713698 -2.6042529697537,15.2867784665083 -3.7406114526311,14.5075391571258 -11.3299665776337,23.6097341498619 -26.3697063086612,31.62616648836 -15.7172072078265,8.3775338127534 -47.6378363196263,17.8161108592803 -106.5134186567432,31.4948400596843 l -14.7539804673541,3.4278336694048 -17.5401807812689,0 c -9.6470994296981,0 -17.4547966886611,-0.083712849225 -17.3504383532512,-0.1860285538341 z"
           style="fill:#0000ff;fill-opacity:1;stroke:none" />
        <path
           id="path2936"
           d="m 601.6073442000039,445.7726951481793 c -36.9451627332401,-23.4448968081215 -79.4877270905919,-36.7940595463709 -125.5926048165498,-39.4089107166629 -14.3370457922629,-0.8131296040142 -29.3770823162237,-0.404191878145 -41.2753846156521,1.1222753277368 -2.6298300523262,0.3373884131445 -4.8434157563171,0.5524285130071 -4.9190793422021,0.4778668885836 -0.075663585885,-0.074561624423 0.1804886919391,-3.0190980770415 0.5692272840533,-6.5434143391511 0.3887385921143,-3.5243162621096 0.7067974402078,-8.0684767379377 0.7067974402078,-10.098134390729 l 0,-3.6902866414388 39.0489916860552,0.1840952735654 c 41.7344781393523,0.1967559170783 40.9350179543237,0.1572395098214 53.0246399123611,2.6209476152347 30.4264570456833,6.2005171958763 58.0751377242016,23.4865001287619 77.355747942441,48.362891316277 3.4674967558982,4.4738628479488 7.4477121993833,10.3265874840459 7.1947496399397,10.5795500434899 -0.09165626285,0.09165626285 -2.842544571644,-1.5314399067577 -6.113085130654,-3.6068803769056 l 0,0 z"
           style="fill:#8000ff;fill-opacity:1;stroke:none" />
        <path
           id="path2938"
           d="m 616.0238820626509,466.7472438679529 c -0.298433424579,-0.3595902782709 -2.2231617820745,-1.7698137975382 -4.2771741277681,-3.1338300428162 -27.5993921632601,-18.3280394343355 -102.0943307848397,-39.0396815805076 -155.2539411435258,-43.1648663687343 -7.7748656049143,-0.6033294282538 -23.1547672971549,-0.3383219736698 -26.9519965394739,0.4644034885143 -1.231231451363,0.2602794755807 -2.3253043698686,0.3865336791203 -2.4312731522344,0.2805648967544 -0.1805971330237,-0.1805971330237 2.0692484411043,-10.7929760062428 2.3470208309315,-11.07074839607 0.3462317709134,-0.3462317709135 10.8905115313611,-1.5221402759086 17.3426835523642,-1.9340732180837 25.2768054229244,-1.6137742132044 54.4244771515375,1.1311598462333 79.9129288663338,7.5256686804005 28.9754845829142,7.2693309979344 54.2968846525199,18.4455065469415 78.759037867017,34.7620917821696 l 5.2005192457988,3.4688162892885 3.1248624923729,6.550424618421 c 2.924028845159,6.1294314802824 3.5243379432907,7.8143446956004 2.2273321081841,6.2515482701559 z"
           style="fill:#ff00ff;fill-opacity:1;stroke:none" />
        <path
           id="path2940"
           d="M 617.9919633843361,482.8887959335798 C 599.3738838680242,470.7193102149786 577.5485203795033,460.4398656533285 553.8217025917488,452.6654899771423 517.2860171494404,440.6941355900376 473.4011124064964,434.1017945313646 433.94232128198,434.6573440753614 c -6.324178534313,0.089039587903 -11.4984545463573,0.1298848530482 -11.4983911378764,0.090767255877 8.318805084e-4,-0.5131989621064 3.6794819049885,-10.8419533040288 3.9519262528079,-11.0960475095521 1.5955595144859,-1.4880926341231 19.831080111174,-2.3086325870761 30.8350472775221,-1.3874782520328 36.9122996519568,3.0899696742826 85.1308221449947,14.0009155356038 120.9537266747956,27.3695562460312 18.5521813668122,6.923432098625 32.2129321211538,14.0918398282325 38.7656468761196,20.3420710696808 2.5934718924058,2.4737531926668 2.7522039599751,2.7618197141459 4.4451895831835,8.0671178807873 1.733048257208,5.4308421853243 2.5422013942997,8.4708592768801 2.2496832922817,8.4521400778429 -0.082515367519,-0.00528043078 -2.626449389934,-1.6282841404626 -5.653186716478,-3.6066749104162 l 0,0 z"
           style="fill:#ff0080;fill-opacity:1;stroke:none" />
        <path
           id="path2942"
           d="m 623.8164808031965,501.116774290931 c -27.0894426498454,-21.7407133322911 -133.0084697297647,-53.4210422785019 -187.1766113044039,-55.9844324541076 -6.968025215611,-0.3297467267998 -16.5714563622892,-0.013551568289 -18.1804150549145,0.598594307835 -0.8575551466236,0.3262662049439 -0.7426519741562,-0.082814817453 1.296586986656,-4.6161399962897 l 1.8795010077514,-4.1782201133973 3.4780788308705,-0.3271237722546 c 5.1347618251097,-0.4829397893315 32.2477354303588,0.1132749951591 41.9578432328725,0.9226537385754 59.6141625998527,4.9690937522228 111.0995760789788,21.1870361137196 150.9590757309308,47.5522176808711 3.2559800647847,2.1536774504612 6.0615770482301,4.0250207371748 6.2346599632119,4.1585406371413 0.3294223110163,0.2541234876836 2.7208295182395,13.7322031808478 2.4793429821799,13.973689716907 -0.076325087984,0.076325087984 -1.3939531568037,-0.8685757973919 -2.9280623751547,-2.0997797452805 z"
           style="fill:#ff0000;fill-opacity:1;stroke:none" />
        <path
           id="path2944"
           d="m 621.2182130236576,514.9111193607733 c -7.8553052245619,-4.5562134225273 -26.6871198174086,-13.8304613732776 -36.8859280066531,-18.1654954460502 -41.0519314460397,-17.4492468403705 -92.0071268961789,-30.4664513208845 -142.5345119269418,-36.4123985963082 -10.3671523864604,-1.2199828162223 -25.0892526560426,-2.5172088074767 -28.567574742556,-2.5172088074767 -1.1938842279766,0 -2.1706985963212,-0.1228040368364 -2.1706985963212,-0.2728978596364 0,-0.1500938228001 0.6909078390888,-1.43085521192 1.5353507535306,-2.8461364202664 0.8444429144418,-1.4152812083465 2.0715189215181,-3.527688156251 2.7268355712803,-4.69423766201 1.1720266554874,-2.0863610228597 1.2417726452092,-2.1287824318624 4.2707675438129,-2.5975970439951 13.3587584453159,-2.0676103356936 36.7897134831644,0.3314512610665 68.5575003888827,7.0195033060818 59.2618437604634,12.4763584107962 120.5400285718924,34.8820167774217 136.8045687677762,50.0210056847609 l 2.5930715629545,2.4136238193465 0.1918012429528,5.761259599494 c 0.1054906836239,3.1686927797217 0.013371732261,5.7529349578674 -0.2047087808055,5.742760395879 -0.2180805130671,-0.010174561988 -3.0604937131277,-1.5636559984066 -6.3164737779124,-3.4521809698192 z"
           style="fill:#ff8000;fill-opacity:1;stroke:none" />
        <path
           id="path2946"
           d="m 623.733842191682,532.2826852234353 c -2.9536484182601,-3.144014666307 -14.6216390819441,-9.9035737516167 -26.3325558294628,-15.2551087952497 -50.2526300586278,-22.9639332762291 -147.4616330118759,-50.2620206247574 -184.3913667564332,-51.7805088326284 l -6.9295257766305,-0.2849303829465 1.9436514420834,-2.7761421531618 1.9436514420833,-2.7761421531617 2.2535833710914,0.1020126524805 c 15.7852239378181,0.7145475887658 41.0603990509772,3.705912756227 60.9978390853902,7.2192105618863 51.2068368139724,9.023468765436 95.9436733440069,23.292899941984 133.9021605048628,42.7099413350886 14.063787828596,7.194099945408 20.2160983251863,10.8122371098449 20.2361579104254,11.9007639555414 0.025256810249,1.3705525645155 -1.8750550529984,11.332840710543 -2.2379069325383,11.7321131005507 -0.1737248104815,0.1911620807166 -0.7972846178742,-0.1648820990632 -1.3856884608717,-0.7912092883995 l 0,0 z"
           style="fill:#ffff00;fill-opacity:1;stroke:none" />
        <path
           id="path2948"
           d="M 618.9604196131432,540.1653155385254 C 594.8603492582135,521.9490515299036 520.503604001207,497.389127931633 416.5576680725422,473.3119843883363 c -7.6205576350502,-1.76516049829 -13.9452656467589,-3.2990890344677 -14.0549066926861,-3.408730080395 -0.1096410459272,-0.1096410459272 0.2504047027676,-0.7736740272483 0.8001016637662,-1.4756288473802 1.3017557757939,-1.6623227092124 3.0022315124016,-1.8902087561971 10.6044296047128,-1.4211326225482 41.8681300330696,2.5833765866856 145.0159702580525,32.5783103440988 190.5845456019451,55.4211392894724 10.6827514644575,5.3550997047194 20.1417384776971,11.8142430431873 20.1417384776971,13.7539438135699 0,1.3283985349956 -1.4268403092278,6.7967787728667 -1.7630441714125,6.7568850158583 -0.1573957281488,-0.018676486618 -1.9169465526885,-1.2665919248924 -3.9101129434216,-2.773145418388 l 0,0 z"
           style="fill:#80ff00;fill-opacity:1;stroke:none" />
        <path
           id="path2950"
           d="m 614.159794701397,556.8554838755236 c -10.7694472976515,-7.6098598731187 -40.8356016228294,-20.709688211651 -89.027147225934,-38.7891425526401 -42.5060405977811,-15.9464904183175 -96.7358691816448,-34.6021605264198 -120.165698910256,-41.3383500505174 l -6.7756239268422,-1.9480246951807 1.538732913552,-1.615851715817 1.538732913552,-1.6158517158169 16.1660548671132,3.7821111804228 c 71.2177258295991,16.6616629300424 127.4341011402544,32.9943585307694 164.1651487209671,47.6953447726009 17.2653503847181,6.910167152418 34.6864615111914,16.210656702597 39.2884371424517,20.9746494602738 l 1.4917454813143,1.5442638637636 -2.1040766396411,6.5692294112833 c -1.1572421518026,3.6130761762064 -2.2383712629124,6.7010213687693 -2.4025091357994,6.862100427918 -0.1641378728868,0.1610790591485 -1.8353461631018,-0.7931362146819 -3.7137962004776,-2.1204783862903 z"
           style="fill:#00ff00;fill-opacity:1;stroke:none" />
        <path
           id="path2952"
           d="m 601.6367944522246,576.6142874829852 c -26.6516582233904,-16.3152503203369 -70.7222862784057,-39.053279450838 -111.1131658472008,-57.3283048896407 -26.6026661032224,-12.0364895482977 -61.9413936018695,-26.8488665601533 -85.8394744352352,-35.979978562695 -5.3848901071441,-2.0574888432491 -9.9457516287637,-3.8816007164531 -10.1352478258216,-4.0535819404533 -0.1894961970576,-0.1719812240005 0.254607859959,-0.8867118158122 0.9868979044813,-1.588290204026 l 1.3314364445862,-1.2755970694799 4.4776840224303,1.1540319001448 c 6.0888102036871,1.5692668740766 32.565253342304,10.059387626747 51.1714633511874,16.4089980163825 43.078912295738,14.7012373264955 89.4879234881214,31.9264590146062 118.6098239603158,44.0233579559561 26.7722966641269,11.1209008314207 45.7658736378843,21.0408916968471 45.7658736378843,23.9026618874025 0,1.683251526393 -8.0947198916415,18.4625430789287 -8.8758273245037,18.3984247066521 -0.2527250736836,-0.020745315787 -3.1234838233396,-1.6685201258963 -6.3794638881244,-3.6617218002438 z"
           style="fill:#00ff80;fill-opacity:1;stroke:none" />
        <path
           id="path2954"
           d="M 590.2444340083839,595.1087075270636 C 575.2369166829793,580.0421879317542 528.3955031341411,551.9767719008331 468.6653008973777,522.2635755610621 434.2195713660556,505.1283125566977 405.9167331113621,492.5471138452302 391.0371400582258,487.7562477681976 l -4.3215977850219,-1.3914490909061 3.0924152382,-2.8306400980842 3.0924152382,-2.8306400980841 8.2826453031162,3.145958673549 c 50.7538776306805,19.2776094719896 115.4020818837877,48.312254126802 158.5586482931829,71.2114754512872 19.6119204943462,10.4062427890575 47.1320191196116,26.2686098738104 47.1320191196116,27.1665228711972 0,1.1058483977996 -7.8581861413073,11.9439798673369 -11.6122365946868,16.0157757280674 l -0.9107636544852,0.9878513153971 -4.1062512079587,-4.1223949935575 0,0 z"
           style="fill:#00ffff;fill-opacity:1;stroke:none" />
        <path
           id="path2956"
           d="M 563.3847209638438,601.6242280966265 C 530.3059761466173,580.8053699707395 463.1696171839263,539.8067369939832 410.2360525661745,508.0998525789683 l -28.8294295604324,-17.2686535929397 1.7142412738125,-1.4955548182278 c 1.9957027358905,-1.7411101272653 2.0503862006222,-1.7369633328926 9.0402896410618,0.685549505599 16.8674167899543,5.845793732922 41.8024107350053,17.0133920726365 76.0487651495187,34.0598463866746 58.282195490946,29.0105268062405 104.17306412931,56.3435066935025 119.8216181047397,71.3667440798474 5.3275452167178,5.1146563831335 5.2835817210214,4.9844356405248 2.6066829746701,7.721046457457 -2.4508086108292,2.5054774162705 -10.2189391360107,8.5887779875936 -10.8878779052103,8.5264058921974 -0.2349915298494,-0.021910696153 -7.5995211060698,-4.5538644729805 -16.3656212804906,-10.0710083929497 z"
           style="fill:#0080ff;fill-opacity:1;stroke:none" />
        <path
           id="path2958"
           d="m 526.9541747844339,617.6068373067928 c -32.5858044508621,-21.8778470054145 -74.5317582395403,-54.478902288763 -117.9438932558403,-91.6678496271278 -16.0605399977583,-13.7582400860515 -33.6119003864578,-29.7233843331405 -33.3684854622935,-30.3527858760967 0.06908664047,-0.1786383405156 1.0773537652859,-1.0475716308422 2.2405936107022,-1.9309628673923 l 2.1149815371204,-1.6061658846367 34.3155646422897,20.5944600602285 c 34.3850031138657,20.6361335062127 78.7706809376495,47.5715323865152 106.4935842602458,64.6255123472688 24.3813342456017,14.9983852990614 55.7410290837231,34.5509439011729 56.4119893530634,35.1724955673559 0.5233198682605,0.4847833037626 0.3331902438581,0.7317469795962 -1.143221178512,1.4849558842982 -9.0300988782394,4.6068126962268 -25.5259681335556,9.5458961608517 -35.9150405167395,10.7534425741396 l -2.2769091362135,0.2646505250333 -10.9291638538227,-7.3377527030707 z"
           style="fill:#0000ff;fill-opacity:1;stroke:none" />
        <path
           id="path2960"
           d="m 521.0342110302797,624.2426870757924 c -48.8506020305771,-6.393909107505 -102.0388441271261,-46.2321787979048 -133.4315493887941,-99.9409237874313 -4.947416697085,-8.464372201306 -13.3712859758879,-25.7109801890658 -12.8250011822641,-26.2572649826897 0.119842538787,-0.119842538787 2.2358586604084,1.7045909454137 4.7022580480474,4.0542966315572 13.8374027429057,13.1827083924081 47.4477447772726,41.8230094561849 73.9300911774808,62.9978732983574 27.8960113068038,22.3052078631758 50.2091261141821,38.9464184215097 71.0627634531743,52.9988941342383 l 10.158732485438,6.8455847391574 -4.521738160328,-0.051212193726 c -2.4869559881804,-0.028166706549 -6.5709563829198,-0.3194282343078 -9.0755564327543,-0.6472478394639 z"
           style="fill:#8000ff;fill-opacity:1;stroke:none" />
      </g>
    </g>
    <g
       id="g3072">
      <path
         sodipodi:nodetypes="ccc"
         id="path3023"
         d="m 346.0712331374314,256.488776593036 c 1.8242572123423,1.2877109734179 -17.3431010694964,-144.730060965075 -51.892885048579,-154.9618778627482 42.1186774581458,10.2430150283345 52.0037382275436,109.098956471489 51.892885048579,154.9618778627482 z"
         style="fill:none;stroke:#000000;stroke-width:1.9517536163;stroke-linecap:butt;stroke-linejoin:miter;stroke-opacity:1" />
      <path
         style="fill:none;stroke:#000000;stroke-width:1.9517536163;stroke-linecap:butt;stroke-linejoin:miter;stroke-opacity:1"
         d="m 384.7872252968209,256.488776593036 c -1.8242572123423,1.2877109734179 17.3431010694964,-144.730060965075 51.8928850485791,-154.9618778627482 -42.1186774581458,10.2430150283345 -52.0037382275436,109.098956471489 -51.8928850485791,154.9618778627482 z"
         id="path2935"
         sodipodi:nodetypes="ccc" />
      <path
         style="fill:#ffffff;stroke:#000000;stroke-width:1.9517536163"
         d="m 364.1860554188081,272.1172504839932 c -39.5593348793964,22.8885924934806 -66.1842189426923,65.6596144277989 -66.1842189426923,114.650370939268 0,48.9914833403526 26.6239130588781,91.7964998877143 66.1842189426923,114.6848418866338 39.5728900327769,-22.8850936044018 66.1842189426922,-65.6839392591968 66.1842189426922,-114.6848418866338 0,-49.0002680194387 -26.6121767733195,-91.7650583558197 -66.1842189426922,-114.6503709392678 z"
         id="path3086" />
      <path
         sodipodi:type="arc"
         style="fill:#ffffff;fill-opacity:1;stroke:#000000;stroke-width:1.7693828344"
         id="path3103"
         sodipodi:cx="344.5438232421875"
         sodipodi:cy="220.8944549560547"
         sodipodi:rx="49.58855056762695"
         sodipodi:ry="49.58855056762695"
         d="m 394.13237,220.89445 a 49.588551,49.588551 0 0 1 -49.58855,49.58856 49.588551,49.588551 0 0 1 -49.58855,-49.58856 49.588551,49.588551 0 0 1 49.58855,-49.58855 49.588551,49.588551 0 0 1 49.58855,49.58855 z"
         transform="matrix(1.103070315711538,0,0,1.103070315711538,-15.87000846141184,28.45513431669)" />
      <g
         style="stroke:#000000;stroke-width:1.7693828344"
         id="g3113"
         transform="matrix(1.103070315711538,0,0,1.103070315711538,-50.67889746539264,-8.42610128684616)">
        <path
           transform="matrix(0.7708333369813994,0,0,0.7708333369813994,218.6941097328989,47.54956603628102)"
           d="m 198.3542,249.87477 a 15.456172,15.456172 0 0 1 -15.45617,15.45617 15.456172,15.456172 0 0 1 -15.45618,-15.45617 15.456172,15.456172 0 0 1 15.45618,-15.45617 15.456172,15.456172 0 0 1 15.45617,15.45617 z"
           sodipodi:ry="15.45617198944092"
           sodipodi:rx="15.45617198944092"
           sodipodi:cy="249.8747711181641"
           sodipodi:cx="182.8980255126953"
           id="path3105"
           style="fill:#ffffff;fill-opacity:1;stroke:#000000;stroke-width:2.2954156399;stroke-miterlimit:4;stroke-opacity:1;stroke-dasharray:none"
           sodipodi:type="arc" />
        <path
           sodipodi:type="arc"
           style="fill:#000000;fill-opacity:1;stroke:#000000;stroke-width:5.3081479073"
           id="path3109"
           sodipodi:cx="182.8980255126953"
           sodipodi:cy="249.8747711181641"
           sodipodi:rx="15.45617198944092"
           sodipodi:ry="15.45617198944092"
           d="m 198.3542,249.87477 a 15.456172,15.456172 0 0 1 -15.45617,15.45617 15.456172,15.456172 0 0 1 -15.45618,-15.45617 15.456172,15.456172 0 0 1 15.45618,-15.45617 15.456172,15.456172 0 0 1 15.45617,15.45617 z"
           transform="matrix(0.3333333439129078,0,0,0.3333333439129095,298.7119946269439,156.8697766684684)" />
      </g>
      <g
         style="stroke:#000000;stroke-width:1.7693828344"
         id="g3117"
         transform="matrix(1.103070315711538,0,0,1.103070315711538,-11.96290530600296,-8.42610128684616)">
        <path
           sodipodi:type="arc"
           style="fill:#ffffff;fill-opacity:1;stroke:#000000;stroke-width:2.2954156399;stroke-miterlimit:4;stroke-opacity:1;stroke-dasharray:none"
           id="path3119"
           sodipodi:cx="182.8980255126953"
           sodipodi:cy="249.8747711181641"
           sodipodi:rx="15.45617198944092"
           sodipodi:ry="15.45617198944092"
           d="m 198.3542,249.87477 a 15.456172,15.456172 0 0 1 -15.45617,15.45617 15.456172,15.456172 0 0 1 -15.45618,-15.45617 15.456172,15.456172 0 0 1 15.45618,-15.45617 15.456172,15.456172 0 0 1 15.45617,15.45617 z"
           transform="matrix(0.7708333369813994,0,0,0.7708333369813994,218.6941097328989,47.54956603628102)" />
        <path
           transform="matrix(0.3333333439129078,0,0,0.3333333439129095,298.7119946269439,156.8697766684684)"
           d="m 198.3542,249.87477 a 15.456172,15.456172 0 0 1 -15.45617,15.45617 15.456172,15.456172 0 0 1 -15.45618,-15.45617 15.456172,15.456172 0 0 1 15.45618,-15.45617 15.456172,15.456172 0 0 1 15.45617,15.45617 z"
           sodipodi:ry="15.45617198944092"
           sodipodi:rx="15.45617198944092"
           sodipodi:cy="249.8747711181641"
           sodipodi:cx="182.8980255126953"
           id="path3121"
           style="fill:#000000;fill-opacity:1;stroke:#000000;stroke-width:5.3081479073"
           sodipodi:type="arc" />
      </g>
      <path
         style="fill:#ffffff;fill-opacity:1;stroke:#000000;stroke-width:1.9517536163;stroke-miterlimit:4;stroke-opacity:1"
         d="m 381.2352789288468,286.9110373166103 c 0,9.6673255797225 -7.7127192924174,17.5042413948318 -17.2268406973013,17.5042413948318 -9.5141214048842,0 -17.2268406973015,-7.8369158151095 -17.2268406973015,-17.5042413948318 11.9905330134832,9.1075058750788 23.4093764877198,7.9246000437223 34.4536813946029,0 z"
         id="path3139"
         sodipodi:nodetypes="cscc" />
    </g>
    <path
       id="path3206"
       d="m 310.5532909539245,330.4424849733917 107.271700765329,0 6.0803363349233,15.5010594739225 -119.4385452707374,0 6.0865081704851,-15.5010594739225 z"
       style="fill:none;stroke:#000000;stroke-width:0.9758768082px;stroke-linecap:butt;stroke-linejoin:miter;stroke-opacity:1" />
    <path
       id="path3208"
       d="m 300.2479151011181,362.3620825585681 127.8778641445173,0 2.1353054589998,20.1720704337276 -132.1928073720571,0 2.17963776854,-20.1720704337276 z"
       style="fill:none;stroke:#000000;stroke-width:0.9758768082px;stroke-linecap:butt;stroke-linejoin:miter;stroke-opacity:1" />
    <path
       id="path3210"
       d="m 299.1034554914039,403.9224057308051 130.1660207853522,0 -3.8472600858029,18.8340440933576 -122.4692387730684,0 -3.8495219264809,-18.8340440933576 z"
       style="fill:none;stroke:#000000;stroke-width:0.9758768082px;stroke-linecap:butt;stroke-linejoin:miter;stroke-opacity:1" />
    <path
       id="path3214"
       d="m 308.3978075583957,438.2512711860704 112.6463417042519,0 -8.9673092823383,15.7220012258797 -95.7740426804026,0 -7.904989741511,-15.7220012258797 z"
       style="fill:none;stroke:#000000;stroke-width:0.9758768082px;stroke-linecap:butt;stroke-linejoin:miter;stroke-opacity:1" />
    <path
       id="path3216"
       d="m 328.7402975076756,471.5971336961438 72.481954823159,0 -18.6957550181027,17.0689601653349 -36.674454098176,0 -17.1117457068802,-17.0689601653349 z"
       style="fill:none;stroke:#000000;stroke-width:0.9758768082px;stroke-linecap:butt;stroke-linejoin:miter;stroke-opacity:1" />
    <path
       id="path3218"
       d="m 357.4239713761006,496.0834326265086 c -3.3649373899687,-2.2851023048383 -6.842576032233,-4.7360018984552 -7.7280858716984,-5.4464435413708 l -1.6100178899372,-1.2917120780285 16.1001788993716,0 16.1001788993716,0 -1.6100178899371,1.2937370095547 c -2.8682739422205,2.3048142357828 -13.9513511771796,9.6261386972398 -14.5513966165618,9.6124473139241 -0.3205243518661,-0.00731348241 -3.3359021406401,-1.8829263992412 -6.7008395306087,-4.1680287040795 z"
       style="fill:#ff0000;fill-opacity:1;stroke:none" />
    <path
       id="path3220"
       d="m 338.1037566968547,479.9785331581171 -8.0307615317162,-8.0500894496858 34.0059394174015,0 34.0059394174015,0 -3.2739193402367,3.7641060177681 c -1.8006556371303,2.0702583097724 -5.4203744769887,5.6927985621311 -8.0438196441299,8.0500894496858 l -4.7699003038933,4.2859834319177 -17.9313582415554,0 -17.9313582415554,0 -8.0307615317161,-8.0500894496858 z"
       style="fill:#ff8000;fill-opacity:1;stroke:none" />
    <path
       id="path3222"
       d="m 327.4741479221513,468.5474061395633 c -2.4444448449141,-2.8375126081572 -9.3346130605175,-12.8730724970415 -9.3346130605175,-13.5959044071294 0,-0.2261881794281 20.7519359434681,-0.4112512353239 46.1154132077067,-0.4112512353239 41.9179182939081,0 46.0795904679883,0.093352563299 45.7218497899371,1.025609826561 -0.5808073875209,1.5135597900752 -6.4793935623692,9.9270379889488 -9.1340833731258,13.0284459781523 l -2.3026513734485,2.6901302506331 -34.3540165988667,0 -34.3540165988666,0 -2.3578819928186,-2.7370304128931 z"
       style="fill:#ffff00;fill-opacity:1;stroke:none" />
    <path
       id="path3224"
       d="m 316.169880663852,451.8032200842168 c -1.3985308020306,-2.240088265295 -6.4024388298914,-12.4025682891768 -6.4024388298914,-13.0027683064177 0,-0.1982090990334 24.4883721059442,-0.3603801800607 54.418604679876,-0.3603801800607 29.9302325739318,0 54.418604679876,0.1638954137296 54.418604679876,0.3642120305103 1e-13,0.7779115457161 -4.3712382349453,9.7596415930924 -6.0129105485589,12.3549292999933 l -1.7313329225185,2.7370304128931 -46.6919059051595,0 -46.6919059051594,0 -1.3067152484643,-2.0930232569183 0,0 z"
       style="fill:#80ff00;fill-opacity:1;stroke:none" />
    <path
       id="path3226"
       d="m 308.5122471872787,436.2723688131735 c -1.1292696160931,-2.9702041789976 -4.5408697570918,-12.7505894752809 -4.5408697570918,-13.0177787457817 0,-0.1488796171775 27.0966010876424,-0.2706902130501 60.2146690836497,-0.2706902130501 33.1180679960074,0 60.1986573829971,0.2173524151415 60.1790875266439,0.4830053669811 -0.019569856354,0.2656529518396 -1.1178086584167,3.5259391789624 -2.440530671252,7.2450805047172 l -2.4049491142463,6.7620751377361 -55.212681070564,0.1646010604262 -55.212681070564,0.1646010604262 -0.5820449265753,-1.530894171455 z"
       style="fill:#00ff80;fill-opacity:1;stroke:none" />
    <path
       id="path3228"
       d="m 303.6622259227297,421.5381884033888 c -0.8637327579931,-2.573757622989 -3.5544389607367,-15.2503687464316 -3.5547810595773,-16.747490705337 -6.07028481e-5,-0.2656529518397 28.8353100399598,-0.4830053669812 64.0786016506842,-0.4830053669812 37.1143013163423,0 64.0787120194991,0.2417149011945 64.0787120194991,0.5744156516148 0,0.8077029834037 -2.4622374067167,12.8688065285381 -3.1038010445353,15.2037596697693 l -0.5308520755375,1.9320214679247 -60.3483079117828,0.1643064389842 c -47.9537882929936,0.1305606812 -60.4040208714073,-0.00170747354 -60.6195715787501,-0.6440071559748 l 0,0 z"
       style="fill:#00ffff;fill-opacity:1;stroke:none" />
    <path
       id="path3230"
       d="m 299.8303269719907,402.5827059922701 c -0.2281458483451,-0.5945385505542 -0.5940692083797,-5.2313900735732 -0.813163022299,-10.3041144955979 l -0.3983523889443,-9.2231353127721 65.5672349530892,0 65.5672349530892,0 -0.3983523889443,9.2231353127721 c -0.2190938139193,5.0727244220246 -0.5850171739538,9.7095759450436 -0.8131630222989,10.3041144955978 -0.3844742487059,1.0019238316588 -5.0910070745113,1.0809791828257 -64.355719541846,1.0809791828257 -59.2647124673332,0 -63.9712452931401,-0.079055351167 -64.3557195418459,-1.0809791828256 z"
       style="fill:#0080ff;fill-opacity:1;stroke:none" />
    <path
       id="path3232"
       d="m 299.2151735142533,381.8869332837857 c -0.3351509329829,-0.5422856009275 0.6633999578839,-11.8946367906262 1.4550028379558,-16.5416738891943 l 0.4388154504844,-2.5760286238995 63.0948779983399,0 63.0948779983399,0 0.7339087432453,5.152057247799 c 0.4036498087849,2.8336314862894 0.8383546390679,7.1806797891198 0.9660107339623,9.660107339623 l 0.2321019907169,4.5080500918239 -64.8438132857509,0.1640765584232 c -35.6640973071631,0.090242107133 -64.9913994174453,-0.074722818926 -65.1717824672935,-0.3665887245752 z"
       style="fill:#0000ff;fill-opacity:1;stroke:none" />
    <path
       id="path3234"
       d="m 301.3953488062874,362.3620825585682 c 0,-0.981000502848 1.7839709622429,-9.2450650956039 2.980895750405,-12.9560002743544 l 0.9866606219588,-3.0590339908806 58.8231413351854,0 58.8231413351853,0 3.2076521992837,7.3891209225398 c 1.1969247881622,3.7109351787505 1.9486763670916,8.020306900632 1.9486763670915,9.00130740348 0,0.5151932316895 -18.5481931155151,-0.9342565826232 -63.9794699015605,-0.9342565826232 -45.4312767860504,0 -62.7906977075492,1.074055753528 -62.7906977075492,0.5588625218384 z"
       style="fill:#8000ff;fill-opacity:1;stroke:none"
       sodipodi:nodetypes="ccccccssc" />
    <path
       id="path3236"
       d="m 305.9005608793315,344.8980321923895 c -0.00156091033,-0.4427549197328 1.1895308230033,-3.7754919519027 2.646870518516,-7.406082293711 l 2.6497085372961,-6.6010733487424 52.988906578693,0 52.9889065786931,0 2.6497085372961,6.6010733487424 c 1.4573396955128,3.6305903418083 2.648431428845,6.9633273739782 2.6468705185159,7.406082293711 -0.0022494351,0.63805616545 -12.0902192559241,0.8050089449685 -58.2854856345052,0.8050089449685 -46.1952663785809,0 -58.2832361994007,-0.1669527795185 -58.2854856345051,-0.8050089449685 z"
       style="fill:#ff00ff;fill-opacity:1;stroke:none" />
    <path
       id="path3238"
       d="m 314.471556183618,324.837826311745 c 1.5825970510462,-2.974973695219 4.2135030825692,-7.4743710855343 5.8464578478289,-9.9986608673674 l 2.9690086641085,-4.5896177851513 5.5613959792845,4.4988867483453 c 6.4254058322117,5.1978268152373 13.828325750884,9.0752402728127 21.1694704075497,11.0878937432434 4.1632025689275,1.1413865943712 6.8825529358239,1.4124917004905 14.168157431447,1.4124917004905 7.2856044956231,0 10.0049548625196,-0.2711051061193 14.1681574314472,-1.4124917004905 7.3411446566656,-2.0126534704307 14.7440645753381,-5.8900669280062 21.1694704075496,-11.0878937432434 l 5.5613959792844,-4.4988867483453 2.9690086641093,4.5896177851525 c 1.6329547652601,2.5242897818337 4.263860796783,7.0236871721492 5.8464578478289,9.9986608673673 l 2.8774491837196,5.4090430822151 -52.5919395139391,0 -52.591939513939,0 2.8774491837204,-5.4090430822162 z"
       style="fill:#ff0080;fill-opacity:1;stroke:none" />
    <path
       id="path3240"
       d="m 361.2022604993017,303.1294457016948 c -6.1376818053077,-0.9186257216974 -11.5218493202286,-6.0297084462524 -13.053097618718,-12.3910449584035 -0.2428125421566,-1.0087275143772 -0.2114847705486,-1.7315750570815 0.06961727024,-1.6063278726762 0.2811020407888,0.1252471844053 1.9784517880535,1.000483010363 3.7718883272551,1.9449685021282 7.3672153490565,3.8798295115542 15.4852799864733,3.8650097527616 23.8376080590918,-0.043516234153 4.6915555676428,-2.1954437967182 5.0577159666527,-1.8404927338641 2.9309579902826,2.8412320301285 -3.0383402680431,6.6884304807509 -10.0408641152733,10.379623339323 -17.5569740281517,9.2546885329758 z"
       style="fill:#ff00ff;fill-opacity:1;stroke:none" />
    <path
       id="path3242"
       d="m 353.0426964824873,324.7550755560739 c -19.7043834633637,-4.2782052254871 -35.1005028910358,-18.8691607099388 -40.8378176799956,-38.702140669291 -1.9235282932563,-6.6493297813828 -2.0550142226574,-20.7465590967434 -0.2545439238789,-27.2908598060315 4.8117299451118,-17.4895457670486 18.8625463062223,-32.4557601218118 35.3942502768836,-37.7001537103652 11.2760368736722,-3.577125237031 22.4310149216872,-3.5697775481449 33.7533026543005,0.022233012536 16.4590494491116,5.2216549195868 30.5210557584846,20.2207802557482 35.3238703392636,37.6779206978292 1.8004702987784,6.544300709288 1.6689843693773,20.6415300246489 -0.254543923879,27.2908598060316 -5.7789992243036,19.977076387943 -21.2071067376287,34.5079808943539 -41.1174314802036,38.7262967847288 -5.4832959387165,1.1617226081931 -16.6014222177675,1.1495187780883 -22.0070862624906,-0.024156115438 l 0,3e-13 z m 17.3745774631705,-20.8962493895367 c 4.4234814401847,-1.6807906554546 8.5696990486526,-5.8129955536426 10.1971138109919,-10.162651268256 1.1113195010413,-2.9702675251129 1.7582688291938,-7.8857992665855 1.0378760235478,-7.8857992665855 -0.1341887376214,0 -1.9454588638007,1.0245898365641 -4.0250447248428,2.276866303476 -9.49787646179,5.7193922124351 -18.6634792484603,5.5947704602228 -27.9067426202092,-0.3794390008832 l -4.0660553847666,-2.6280184359238 0.4472342609112,3.371416877355 c 1.6772039511654,12.6433822315025 12.8906239843231,19.748781073732 24.3156186343678,15.4076247908175 z m -18.4218058064723,-34.7236075687414 c 8.1935485553427,-3.7214268106339 10.5660004630115,-14.9601068351301 4.5938867948762,-21.7619685311571 -8.3600199169435,-9.5215366637246 -24.2094620788694,-3.6471192874439 -24.2675189555052,8.9944828073443 -0.046739996372,10.1774065413676 10.420402676808,16.9702088850229 19.673632160629,12.7674857238128 z m 38.1325510307769,0.2188113205465 c 11.0819942467575,-4.6292138815763 11.3686399165736,-20.421723300811 0.4623207388436,-25.4711840844525 -9.0404668465667,-4.185599381757 -19.5823095730109,2.519781482419 -19.6280745717577,12.4848870400932 -0.045677982687,9.9461582344875 10.0567522245639,16.7913447418901 19.1657538329141,12.9862970443593 z"
       style="fill:#ffff00;fill-opacity:1;stroke:none" />
    <path
       id="path3244"
       d="m 387.4681425090353,221.5679658586209 c -0.1722406388669,-0.2786912079306 0.093241608941,-4.4131143356257 0.5899605506836,-9.1876069504335 4.36050775763,-41.9134652134762 13.8659458501941,-75.151405814398 26.6093924676097,-93.0458330959941 2.688253904329,-3.7748629118702 9.036643218372,-10.6261180735853 9.8461862586977,-10.6261180735852 0.3085012824833,0 -0.8624260563944,2.1010733463679 -2.6020607530612,4.6690518808177 -8.322860761698,12.2858711787039 -16.7313573518268,34.4265494739539 -23.8371163467802,62.7662649159044 -3.2920144299119,13.1294562960493 -8.0402814102658,35.652788433376 -8.833031951928,41.8993525966541 -0.4118746118528,3.2454108259185 -1.1003180033675,4.6138453764404 -1.7733302252214,3.5248887266366 z"
       style="fill:#00ffff;fill-opacity:1;stroke:none" />
    <path
       id="path3246"
       d="m 340.4610516688716,211.2665473276051 c -8.0801047698862,-43.6274654839048 -19.8890026822391,-80.6701276662195 -30.929679581264,-97.0215578659122 -1.6509203161674,-2.445041056989 -2.8254616910819,-4.6185652084041 -2.6100919442544,-4.8300536698114 0.5056817798478,-0.4965686367611 6.6538503957555,6.0947570083487 9.3913551078827,10.0682794555697 12.191806607561,17.6965603064388 21.4716583557812,48.9571798739803 25.9558435531256,87.4362837773236 1.9062000875615,16.3572350386601 0.8758861257258,18.8352461690872 -1.80742713549,4.3470483028303 z"
       style="fill:#00ffff;fill-opacity:1;stroke:none" />
  </g>
</svg>
