<?xml version="1.0" encoding="UTF-8" standalone="no"?>
<!-- Created with Inkscape (http://www.inkscape.org/) -->

<svg
   xmlns:dc="http://purl.org/dc/elements/1.1/"
   xmlns:cc="http://creativecommons.org/ns#"
   xmlns:rdf="http://www.w3.org/1999/02/22-rdf-syntax-ns#"
   xmlns:svg="http://www.w3.org/2000/svg"
   xmlns="http://www.w3.org/2000/svg"
   xmlns:sodipodi="http://sodipodi.sourceforge.net/DTD/sodipodi-0.dtd"
   xmlns:inkscape="http://www.inkscape.org/namespaces/inkscape"
   width="720"
   height="720"
   id="svg2"
   version="1.1"
   sodipodi:docname="midnight rainbow.svg"
   inkscape:export-filename="C:\Users\chandlerklebs\Pictures\The Inkscape Artist\selling\society6uploads\PNG\midnight rainbow.png"
   inkscape:export-xdpi="96"
   inkscape:export-ydpi="96"
   inkscape:version="0.92.0 r15299">
  <defs
     id="defs4">
    <inkscape:perspective
       sodipodi:type="inkscape:persp3d"
       inkscape:vp_x="0 : 526.18109 : 1"
       inkscape:vp_y="0 : 1000 : 0"
       inkscape:vp_z="744.09448 : 526.18109 : 1"
       inkscape:persp3d-origin="372.04724 : 350.78739 : 1"
       id="perspective10" />
    <inkscape:perspective
       id="perspective3051"
       inkscape:persp3d-origin="0.5 : 0.3333333333333333 : 1"
       inkscape:vp_z="1 : 0.5 : 1"
       inkscape:vp_y="0 : 1000 : 0"
       inkscape:vp_x="0 : 0.5 : 1"
       sodipodi:type="inkscape:persp3d" />
    <inkscape:perspective
       id="perspective3094"
       inkscape:persp3d-origin="0.5 : 0.3333333333333333 : 1"
       inkscape:vp_z="1 : 0.5 : 1"
       inkscape:vp_y="0 : 1000 : 0"
       inkscape:vp_x="0 : 0.5 : 1"
       sodipodi:type="inkscape:persp3d" />
    <inkscape:perspective
       id="perspective3151"
       inkscape:persp3d-origin="0.5 : 0.3333333333333333 : 1"
       inkscape:vp_z="1 : 0.5 : 1"
       inkscape:vp_y="0 : 1000 : 0"
       inkscape:vp_x="0 : 0.5 : 1"
       sodipodi:type="inkscape:persp3d" />
    <inkscape:perspective
       id="perspective3177"
       inkscape:persp3d-origin="0.5 : 0.3333333333333333 : 1"
       inkscape:vp_z="1 : 0.5 : 1"
       inkscape:vp_y="0 : 1000 : 0"
       inkscape:vp_x="0 : 0.5 : 1"
       sodipodi:type="inkscape:persp3d" />
    <inkscape:perspective
       id="perspective3216"
       inkscape:persp3d-origin="0.5 : 0.3333333333333333 : 1"
       inkscape:vp_z="1 : 0.5 : 1"
       inkscape:vp_y="0 : 1000 : 0"
       inkscape:vp_x="0 : 0.5 : 1"
       sodipodi:type="inkscape:persp3d" />
    <pattern
       y="0"
       x="0"
       height="6"
       width="6"
       patternUnits="userSpaceOnUse"
       id="EMFhbasepattern" />
  </defs>
  <sodipodi:namedview
     id="base"
     pagecolor="#808080"
     bordercolor="#666666"
     borderopacity="1.0"
     inkscape:pageopacity="0"
     inkscape:pageshadow="2"
     inkscape:zoom="0.80694444"
     inkscape:cx="174.73322"
     inkscape:cy="360"
     inkscape:document-units="px"
     inkscape:current-layer="svg2"
     showgrid="false"
     inkscape:showpageshadow="false"
     inkscape:window-width="1366"
     inkscape:window-height="745"
     inkscape:window-x="-8"
     inkscape:window-y="-8"
     inkscape:window-maximized="1"
     inkscape:snap-grids="false"
     inkscape:snap-to-guides="false"
     inkscape:object-nodes="true"
     inkscape:snap-smooth-nodes="false"
     inkscape:snap-object-midpoints="true"
     inkscape:snap-global="false"
     inkscape:object-paths="false"
     inkscape:snap-intersection-paths="false"
     objecttolerance="30"
     showborder="true"
     borderlayer="true"
     inkscape:snap-midpoints="false"
     inkscape:snap-nodes="true"
     inkscape:snap-bbox="false"
     inkscape:snap-others="false">
    <inkscape:grid
       type="xygrid"
       id="grid178" />
  </sodipodi:namedview>
  <metadata
     id="metadata2902">
    <rdf:RDF>
      <cc:Work
         rdf:about="">
        <dc:title></dc:title>
        <dc:format>image/svg+xml</dc:format>
        <dc:type
           rdf:resource="http://purl.org/dc/dcmitype/StillImage" />
      </cc:Work>
    </rdf:RDF>
  </metadata>
  <rect
     style="opacity:1;fill:#000000;fill-opacity:1;fill-rule:nonzero;stroke:none;stroke-width:1;stroke-opacity:1"
     id="rect4665"
     width="720"
     height="720"
     x="0"
     y="-1.0161854e-012" />
  <g
     id="g161"
     transform="matrix(1.0000074,0,0,1.0000074,-500.0408,209.63566)"
     style="stroke-width:0.99999261">
    <path
       inkscape:connector-curvature="0"
       style="fill:#ff0000;fill-opacity:1;fill-rule:nonzero;stroke:none;stroke-width:0.99999261"
       d="m 1160.0322,390.36145 c 0,165.67877 -134.319,299.99778 -299.99778,299.99778 -165.67877,0 -299.99778,-134.31901 -299.99778,-299.99778 0,-165.67877 134.31901,-299.997784 299.99778,-299.997784 165.67878,0 299.99778,134.319014 299.99778,299.997784 z"
       id="path102" />
    <path
       inkscape:connector-curvature="0"
       style="fill:#ff8000;fill-opacity:1;fill-rule:nonzero;stroke:none;stroke-width:0.99999261"
       d="m 1147.5523,390.36145 c 0,158.79882 -128.7191,287.51787 -287.51788,287.51787 -158.79883,0 -287.51787,-128.71905 -287.51787,-287.51787 0,-158.79883 128.71904,-287.51788 287.51787,-287.51788 158.79878,0 287.51788,128.71905 287.51788,287.51788 z"
       id="path104" />
    <path
       inkscape:connector-curvature="0"
       style="fill:#ffff00;fill-opacity:1;fill-rule:nonzero;stroke:none;stroke-width:0.99999261"
       d="m 1135.0724,390.36145 c 0,151.83887 -123.1991,275.03796 -275.03798,275.03796 -151.83888,0 -274.95796,-123.19909 -274.95796,-275.03796 0,-151.83888 123.11908,-274.95797 274.95796,-274.95797 151.83888,0 275.03798,123.11909 275.03798,274.95797 z"
       id="path106" />
    <path
       inkscape:connector-curvature="0"
       style="fill:#80ff00;fill-opacity:1;fill-rule:nonzero;stroke:none;stroke-width:0.99999261"
       d="m 1122.5125,390.36145 c 0,144.95892 -117.5192,262.47805 -262.47808,262.47805 -144.95893,0 -262.47805,-117.51913 -262.47805,-262.47805 0,-144.95893 117.51912,-262.47806 262.47805,-262.47806 144.95888,0 262.47808,117.51913 262.47808,262.47806 z"
       id="path108" />
    <path
       inkscape:connector-curvature="0"
       style="fill:#00ff00;fill-opacity:1;fill-rule:nonzero;stroke:none;stroke-width:0.99999261"
       d="m 1110.0326,390.36145 c 0,138.07897 -111.91921,249.99815 -249.99818,249.99815 -138.07898,0 -249.99815,-111.91918 -249.99815,-249.99815 0,-138.07898 111.91917,-249.99815 249.99815,-249.99815 138.07897,0 249.99818,111.91917 249.99818,249.99815 z"
       id="path110" />
    <path
       inkscape:connector-curvature="0"
       style="fill:#00ff80;fill-opacity:1;fill-rule:nonzero;stroke:none;stroke-width:0.99999261"
       d="m 1097.5527,390.36145 c 0,131.19903 -106.31925,237.51824 -237.51828,237.51824 -131.19903,0 -237.51824,-106.31921 -237.51824,-237.51824 0,-131.19903 106.31921,-237.51825 237.51824,-237.51825 131.19903,0 237.51828,106.31922 237.51828,237.51825 z"
       id="path112" />
    <path
       inkscape:connector-curvature="0"
       style="fill:#00ffff;fill-opacity:1;fill-rule:nonzero;stroke:none;stroke-width:0.99999261"
       d="m 1085.0728,390.36145 c 0,124.23908 -100.7993,225.03833 -225.03838,225.03833 -124.23908,0 -224.95833,-100.79925 -224.95833,-225.03833 -0.08,-124.23908 100.71925,-224.95834 224.95833,-224.95834 124.23908,-0.08 225.03838,100.71926 225.03838,224.95834 z"
       id="path114" />
    <path
       inkscape:connector-curvature="0"
       style="fill:#0080ff;fill-opacity:1;fill-rule:nonzero;stroke:none;stroke-width:0.99999261"
       d="m 1072.5128,390.36145 c 0,117.35913 -95.11925,212.47842 -212.47838,212.47842 -117.35913,0 -212.47842,-95.11929 -212.47842,-212.47842 0,-117.35913 95.11929,-212.47843 212.47842,-212.47843 117.35913,0 212.47838,95.1193 212.47838,212.47843 z"
       id="path116" />
    <path
       inkscape:connector-curvature="0"
       style="fill:#0000ff;fill-opacity:1;fill-rule:nonzero;stroke:none;stroke-width:0.99999261"
       d="m 1060.0329,390.36145 c 0,110.47918 -89.5193,199.99852 -199.99848,199.99852 -110.47918,0 -199.99852,-89.51934 -199.99852,-199.99852 0,-110.47918 89.51934,-199.99853 199.99852,-199.99853 110.47918,0 199.99848,89.51935 199.99848,199.99853 z"
       id="path118" />
    <path
       inkscape:connector-curvature="0"
       style="fill:#8000ff;fill-opacity:1;fill-rule:nonzero;stroke:none;stroke-width:0.99999261"
       d="m 1047.553,390.36145 c 0,103.51923 -83.99935,187.51861 -187.51858,187.51861 -103.51924,0 -187.51861,-83.99938 -187.51861,-187.51861 0,-103.51924 83.99937,-187.51861 187.51861,-187.51861 103.51923,0 187.51858,83.99937 187.51858,187.51861 z"
       id="path120" />
    <path
       inkscape:connector-curvature="0"
       style="fill:#ff00ff;fill-opacity:1;fill-rule:nonzero;stroke:none;stroke-width:0.99999261"
       d="m 1035.0731,390.36145 c 0,96.63928 -78.3994,175.0387 -175.03868,175.0387 -96.63929,0 -174.95871,-78.39942 -174.95871,-175.0387 -0.08,-96.63929 78.31942,-175.03871 174.95871,-174.95871 96.63928,-0.08 175.03868,78.31942 175.03868,174.95871 z"
       id="path122" />
    <path
       inkscape:connector-curvature="0"
       style="fill:#ff0080;fill-opacity:1;fill-rule:nonzero;stroke:none;stroke-width:0.99999261"
       d="m 1022.5132,390.36145 c 0,89.75933 -72.71945,162.47879 -162.47878,162.47879 -89.75934,0 -162.4788,-72.71946 -162.4788,-162.47879 0,-89.75934 72.71946,-162.4788 162.4788,-162.4788 89.75933,0 162.47878,72.71946 162.47878,162.4788 z"
       id="path124" />
    <path
       inkscape:connector-curvature="0"
       style="fill:#000000;fill-opacity:1;fill-rule:nonzero;stroke:none;stroke-width:0.99999261"
       d="m 1010.0333,390.36145 c 0,82.87938 -67.1195,149.99889 -149.99888,149.99889 -82.87939,0 -149.99889,-67.11951 -149.99889,-149.99889 0,-82.87939 67.1195,-149.99889 149.99889,-149.99889 82.87938,0 149.99888,67.1195 149.99888,149.99889 z"
       id="path126" />
  </g>
  <path
     inkscape:connector-curvature="0"
     id="path154"
     d="m 594.83648,54.416417 -8.20759,14.21897 h -16.42775 l 8.2076,14.231521 -8.2076,14.21897 h 16.4152 l 8.22014,14.231532 8.22015,-14.231532 h 16.4152 l -8.2076,-14.21897 8.2076,-14.231521 h -16.42775 z"
     style="fill:#ffffff;fill-opacity:1;fill-rule:evenodd;stroke:none" />
  <path
     style="fill:#ffffff;fill-opacity:1;fill-rule:evenodd;stroke:none"
     d="m 660.44323,92.294493 -8.20759,14.218967 h -16.42775 l 8.2076,14.23152 -8.2076,14.21897 h 16.4152 l 8.22014,14.23154 8.22015,-14.23154 h 16.4152 l -8.2076,-14.21897 8.2076,-14.23152 h -16.42775 z"
     id="path158"
     inkscape:connector-curvature="0" />
  <path
     inkscape:connector-curvature="0"
     id="path160"
     d="m 529.22973,92.294487 -8.20759,14.218963 h -16.42775 l 8.2076,14.23152 -8.2076,14.21897 h 16.4152 l 8.22014,14.23154 8.22015,-14.23154 h 16.4152 l -8.2076,-14.21897 8.2076,-14.23152 h -16.42775 z"
     style="fill:#ffffff;fill-opacity:1;fill-rule:evenodd;stroke:none" />
  <path
     style="fill:#ffffff;fill-opacity:1;fill-rule:evenodd;stroke:none"
     d="m 660.44323,168.05064 -8.20759,14.21896 h -16.42775 l 8.2076,14.23152 -8.2076,14.21897 h 16.4152 l 8.22014,14.23154 8.22015,-14.23154 h 16.4152 l -8.2076,-14.21897 8.2076,-14.23152 h -16.42775 z"
     id="path162"
     inkscape:connector-curvature="0" />
  <path
     inkscape:connector-curvature="0"
     id="path164"
     d="m 594.83648,205.92872 -8.20759,14.21896 h -16.42775 l 8.2076,14.23152 -8.2076,14.21897 h 16.4152 l 8.22014,14.23154 8.22015,-14.23154 h 16.4152 l -8.2076,-14.21897 8.2076,-14.23152 h -16.42775 z"
     style="fill:#ffffff;fill-opacity:1;fill-rule:evenodd;stroke:none" />
  <path
     style="fill:#ffffff;fill-opacity:1;fill-rule:evenodd;stroke:none"
     d="m 529.22973,168.05064 -8.20759,14.21896 h -16.42775 l 8.2076,14.23152 -8.2076,14.21897 h 16.4152 l 8.22014,14.23154 8.22015,-14.23154 h 16.4152 l -8.2076,-14.21897 8.2076,-14.23152 h -16.42775 z"
     id="path166"
     inkscape:connector-curvature="0" />
  <path
     inkscape:connector-curvature="0"
     id="path168"
     d="m 594.83648,130.17257 -8.20759,14.21896 h -16.42775 l 8.2076,14.23152 -8.2076,14.21897 h 16.4152 l 8.22014,14.23154 8.22015,-14.23154 h 16.4152 l -8.2076,-14.21897 8.2076,-14.23152 h -16.42775 z"
     style="fill:#ffffff;fill-opacity:1;fill-rule:evenodd;stroke:none" />
  <path
     style="fill:#ffffff;stroke:none;stroke-width:0.99999994"
     d="M 107.93719,116.18268 122.26068,72.099481 136.58419,116.18268 99.084782,88.937766 H 145.4366 Z"
     id="path3022-8"
     inkscape:connector-curvature="0" />
  <path
     inkscape:connector-curvature="0"
     id="path189"
     d="m 158.45548,152.88636 14.32349,-44.08319 14.32351,44.08319 -37.49941,-27.24491 h 46.35182 z"
     style="fill:#ffffff;stroke:none;stroke-width:0.99999994" />
  <path
     style="fill:#ffffff;stroke:none;stroke-width:0.99999994"
     d="m 139.15921,212.27417 14.32349,-44.08319 14.32351,44.08319 -37.49941,-27.24491 h 46.35182 z"
     id="path191"
     inkscape:connector-curvature="0" />
  <path
     inkscape:connector-curvature="0"
     id="path193"
     d="m 76.715168,212.27417 14.32349,-44.08319 14.323512,44.08319 -37.499412,-27.24491 h 46.351822 z"
     style="fill:#ffffff;stroke:none;stroke-width:0.99999994" />
  <path
     style="fill:#ffffff;stroke:none;stroke-width:0.99999994"
     d="m 57.418899,152.88636 14.32349,-44.08319 14.323512,44.08319 -37.499412,-27.24491 h 46.351822 z"
     id="path195"
     inkscape:connector-curvature="0" />
  <path
     inkscape:connector-curvature="0"
     id="path197"
     d="m 107.93719,169.30075 14.32349,-44.08319 14.32351,44.08319 -37.499412,-27.24491 H 145.4366 Z"
     style="fill:#ffffff;stroke:none;stroke-width:0.99999994" />
  <path
     id="path2951-4"
     d="m 359.17512,76.554218 c -28.89942,0 -52.32702,23.427606 -52.32702,52.327022 0,28.89942 23.4276,52.32702 52.32702,52.32702 4.51554,0 8.9019,-0.55979 13.08176,-1.63522 -22.57124,-5.80732 -39.24527,-26.30791 -39.24527,-50.6918 0,-24.38388 16.67403,-44.866311 39.24527,-50.673633 -4.17986,-1.07543 -8.56622,-1.653389 -13.08176,-1.653389 z"
     style="fill:#ffffff;fill-opacity:1;fill-rule:evenodd;stroke:none;stroke-width:1"
     inkscape:connector-curvature="0" />
  <rect
     style="opacity:1;fill:#008000;fill-opacity:1;fill-rule:nonzero;stroke:none;stroke-width:1;stroke-opacity:1"
     id="rect180"
     width="720"
     height="120"
     x="0"
     y="600" />
  <g
     id="g4663"
     transform="translate(4.0275271,52.243469)">
    <path
       inkscape:transform-center-x="1.8705948e-006"
       inkscape:transform-center-y="-5.0852648"
       d="m 355.97247,499.27595 17.61588,30.51158 -35.23175,0 z"
       inkscape:randomized="0"
       inkscape:rounded="0"
       inkscape:flatsided="true"
       sodipodi:arg2="-0.52359878"
       sodipodi:arg1="-1.5707963"
       sodipodi:r2="10.17053"
       sodipodi:r1="20.341059"
       sodipodi:cy="519.617"
       sodipodi:cx="355.97247"
       sodipodi:sides="3"
       id="path4657"
       style="opacity:1;fill:#008000;fill-opacity:1;fill-rule:nonzero;stroke:none;stroke-width:1;stroke-opacity:1"
       sodipodi:type="star" />
    <rect
       y="529.78754"
       x="351.48022"
       height="17.969019"
       width="8.9845095"
       id="rect4659"
       style="opacity:1;fill:#804000;fill-opacity:1;fill-rule:nonzero;stroke:none;stroke-width:1;stroke-opacity:1" />
  </g>
  <g
     transform="translate(55.507727,52.243469)"
     id="g4677">
    <path
       sodipodi:type="star"
       style="opacity:1;fill:#008000;fill-opacity:1;fill-rule:nonzero;stroke:none;stroke-width:1;stroke-opacity:1"
       id="path4673"
       sodipodi:sides="3"
       sodipodi:cx="355.97247"
       sodipodi:cy="519.617"
       sodipodi:r1="20.341059"
       sodipodi:r2="10.17053"
       sodipodi:arg1="-1.5707963"
       sodipodi:arg2="-0.52359878"
       inkscape:flatsided="true"
       inkscape:rounded="0"
       inkscape:randomized="0"
       d="m 355.97247,499.27595 17.61588,30.51158 -35.23175,0 z"
       inkscape:transform-center-y="-5.0852648"
       inkscape:transform-center-x="1.8705948e-006" />
    <rect
       style="opacity:1;fill:#804000;fill-opacity:1;fill-rule:nonzero;stroke:none;stroke-width:1;stroke-opacity:1"
       id="rect4675"
       width="8.9845095"
       height="17.969019"
       x="351.48022"
       y="529.78754" />
  </g>
  <g
     id="g4683"
     transform="translate(111.89327,52.243469)">
    <path
       inkscape:transform-center-x="1.8705948e-006"
       inkscape:transform-center-y="-5.0852648"
       d="m 355.97247,499.27595 17.61588,30.51158 -35.23175,0 z"
       inkscape:randomized="0"
       inkscape:rounded="0"
       inkscape:flatsided="true"
       sodipodi:arg2="-0.52359878"
       sodipodi:arg1="-1.5707963"
       sodipodi:r2="10.17053"
       sodipodi:r1="20.341059"
       sodipodi:cy="519.617"
       sodipodi:cx="355.97247"
       sodipodi:sides="3"
       id="path4679"
       style="opacity:1;fill:#008000;fill-opacity:1;fill-rule:nonzero;stroke:none;stroke-width:1;stroke-opacity:1"
       sodipodi:type="star" />
    <rect
       y="529.78754"
       x="351.48022"
       height="17.969019"
       width="8.9845095"
       id="rect4681"
       style="opacity:1;fill:#804000;fill-opacity:1;fill-rule:nonzero;stroke:none;stroke-width:1;stroke-opacity:1" />
  </g>
  <g
     transform="translate(-46.161802,52.243469)"
     id="g4689">
    <path
       sodipodi:type="star"
       style="opacity:1;fill:#008000;fill-opacity:1;fill-rule:nonzero;stroke:none;stroke-width:1;stroke-opacity:1"
       id="path4685"
       sodipodi:sides="3"
       sodipodi:cx="355.97247"
       sodipodi:cy="519.617"
       sodipodi:r1="20.341059"
       sodipodi:r2="10.17053"
       sodipodi:arg1="-1.5707963"
       sodipodi:arg2="-0.52359878"
       inkscape:flatsided="true"
       inkscape:rounded="0"
       inkscape:randomized="0"
       d="m 355.97247,499.27595 17.61588,30.51158 -35.23175,0 z"
       inkscape:transform-center-y="-5.0852648"
       inkscape:transform-center-x="1.8705948e-006" />
    <rect
       style="opacity:1;fill:#804000;fill-opacity:1;fill-rule:nonzero;stroke:none;stroke-width:1;stroke-opacity:1"
       id="rect4687"
       width="8.9845095"
       height="17.969019"
       x="351.48022"
       y="529.78754" />
  </g>
  <g
     id="g4695"
     transform="translate(-102.54734,52.243469)">
    <path
       inkscape:transform-center-x="1.8705948e-006"
       inkscape:transform-center-y="-5.0852648"
       d="m 355.97247,499.27595 17.61588,30.51158 -35.23175,0 z"
       inkscape:randomized="0"
       inkscape:rounded="0"
       inkscape:flatsided="true"
       sodipodi:arg2="-0.52359878"
       sodipodi:arg1="-1.5707963"
       sodipodi:r2="10.17053"
       sodipodi:r1="20.341059"
       sodipodi:cy="519.617"
       sodipodi:cx="355.97247"
       sodipodi:sides="3"
       id="path4691"
       style="opacity:1;fill:#008000;fill-opacity:1;fill-rule:nonzero;stroke:none;stroke-width:1;stroke-opacity:1"
       sodipodi:type="star" />
    <rect
       y="529.78754"
       x="351.48022"
       height="17.969019"
       width="8.9845095"
       id="rect4693"
       style="opacity:1;fill:#804000;fill-opacity:1;fill-rule:nonzero;stroke:none;stroke-width:1;stroke-opacity:1" />
  </g>
  <g
     transform="translate(-319.41481,52.243469)"
     id="g4701">
    <path
       sodipodi:type="star"
       style="opacity:1;fill:#008000;fill-opacity:1;fill-rule:nonzero;stroke:none;stroke-width:1;stroke-opacity:1"
       id="path4697"
       sodipodi:sides="3"
       sodipodi:cx="355.97247"
       sodipodi:cy="519.617"
       sodipodi:r1="20.341059"
       sodipodi:r2="10.17053"
       sodipodi:arg1="-1.5707963"
       sodipodi:arg2="-0.52359878"
       inkscape:flatsided="true"
       inkscape:rounded="0"
       inkscape:randomized="0"
       d="m 355.97247,499.27595 17.61588,30.51158 -35.23175,0 z"
       inkscape:transform-center-y="-5.0852648"
       inkscape:transform-center-x="1.8705948e-006" />
    <rect
       style="opacity:1;fill:#804000;fill-opacity:1;fill-rule:nonzero;stroke:none;stroke-width:1;stroke-opacity:1"
       id="rect4699"
       width="8.9845095"
       height="17.969019"
       x="351.48022"
       y="529.78754" />
  </g>
  <g
     id="g4707"
     transform="translate(332.42684,52.243469)">
    <path
       inkscape:transform-center-x="1.8705948e-006"
       inkscape:transform-center-y="-5.0852648"
       d="m 355.97247,499.27595 17.61588,30.51158 -35.23175,0 z"
       inkscape:randomized="0"
       inkscape:rounded="0"
       inkscape:flatsided="true"
       sodipodi:arg2="-0.52359878"
       sodipodi:arg1="-1.5707963"
       sodipodi:r2="10.17053"
       sodipodi:r1="20.341059"
       sodipodi:cy="519.617"
       sodipodi:cx="355.97247"
       sodipodi:sides="3"
       id="path4703"
       style="opacity:1;fill:#008000;fill-opacity:1;fill-rule:nonzero;stroke:none;stroke-width:1;stroke-opacity:1"
       sodipodi:type="star" />
    <rect
       y="529.78754"
       x="351.48022"
       height="17.969019"
       width="8.9845095"
       id="rect4705"
       style="opacity:1;fill:#804000;fill-opacity:1;fill-rule:nonzero;stroke:none;stroke-width:1;stroke-opacity:1" />
  </g>
</svg>
